<?xml version="1.0" encoding="utf-8"?>
<!-- Generator: Adobe Illustrator 19.0.0, SVG Export Plug-In . SVG Version: 6.00 Build 0)  -->
<svg version="1.1" id="Layer_1" xmlns="http://www.w3.org/2000/svg" xmlns:xlink="http://www.w3.org/1999/xlink" x="0px" y="0px"
	 width="24px" height="24px" viewBox="0 0 24 24" style="enable-background:new 0 0 24 24;" xml:space="preserve">
<style type="text/css">
	.st0{fill:#3F65AF;}
	.st1{fill:#FFFFFF;}
</style>
<circle id="XMLID_1_" class="st0" cx="12" cy="12" r="12"/>
<g id="XMLID_3_">
	<g id="XMLID_4_">
		<path id="XMLID_5_" class="st1" d="M10.6,10.8c-0.4,0-0.8-0.2-1.1-0.6c-0.3-0.6-0.1-1.3,0.5-1.6c0.2-0.1,0.4-0.1,0.5-0.1
			c0.4,0,0.8,0.2,1.1,0.6c0.3,0.6,0.1,1.3-0.5,1.6C11,10.7,10.8,10.8,10.6,10.8 M9.2,13.2C9.2,13.2,9.2,13.2,9.2,13.2
			c-0.7,0-1.2-0.6-1.2-1.2c0-0.6,0.6-1.1,1.2-1.1c0.6,0,1.1,0.6,1.1,1.2C10.4,12.7,9.9,13.2,9.2,13.2 M10.6,15.6
			c-0.2,0-0.5-0.1-0.6-0.2c-0.3-0.2-0.4-0.4-0.5-0.7c-0.1-0.3,0-0.6,0.2-0.9c0.2-0.3,0.6-0.5,1-0.5c0.2,0,0.5,0.1,0.6,0.2
			c0.3,0.2,0.4,0.4,0.5,0.7c0.1,0.3,0,0.6-0.2,0.9C11.4,15.4,11,15.6,10.6,15.6 M13.4,15.6c-0.4,0-0.8-0.2-1.1-0.6
			c-0.1-0.3-0.2-0.6-0.1-0.9c0.1-0.3,0.3-0.5,0.6-0.7c0.2-0.1,0.4-0.1,0.5-0.1c0.4,0,0.8,0.2,1.1,0.6c0.3,0.6,0.1,1.3-0.5,1.6
			C13.8,15.5,13.6,15.6,13.4,15.6 M14.8,13.2C14.7,13.2,14.7,13.2,14.8,13.2c-0.7,0-1.2-0.6-1.2-1.2c0-0.6,0.6-1.1,1.2-1.1
			c0.3,0,0.6,0.2,0.8,0.4s0.3,0.5,0.3,0.8C15.9,12.7,15.4,13.2,14.8,13.2 M13.4,10.8c-0.2,0-0.5-0.1-0.6-0.2
			C12.2,10.2,12,9.5,12.4,9c0.2-0.3,0.6-0.5,1-0.5c0.2,0,0.5,0.1,0.6,0.2c0.5,0.4,0.7,1.1,0.3,1.6C14.1,10.6,13.8,10.8,13.4,10.8
			 M9.4,6.4c0.1,0.3,0,0.6-0.3,0.8s-0.6,0-0.8-0.3c-0.1-0.3,0-0.6,0.3-0.8C8.9,6,9.3,6.1,9.4,6.4 M5.9,11.4c0.3,0,0.6,0.3,0.6,0.6
			c0,0.3-0.3,0.6-0.6,0.6c-0.3,0-0.6-0.3-0.6-0.6S5.6,11.4,5.9,11.4 M8.4,17c0.2-0.3,0.5-0.4,0.8-0.2c0.3,0.2,0.4,0.5,0.2,0.8
			c-0.2,0.3-0.5,0.4-0.8,0.2C8.3,17.6,8.3,17.3,8.4,17 M14.6,17.6c-0.1-0.3,0-0.6,0.3-0.8c0.3-0.1,0.6,0,0.8,0.3
			c0.1,0.3,0,0.6-0.3,0.8C15.1,18,14.7,17.9,14.6,17.6 M18.1,12.6c-0.3,0-0.6-0.3-0.6-0.6s0.3-0.6,0.6-0.6c0.3,0,0.6,0.3,0.6,0.6
			S18.4,12.6,18.1,12.6 M15.6,7c-0.2,0.3-0.5,0.4-0.8,0.2c-0.3-0.2-0.4-0.5-0.2-0.8c0.2-0.3,0.5-0.4,0.8-0.2
			C15.7,6.4,15.7,6.7,15.6,7 M8.1,4.6C8.2,4.8,8.2,5,8,5.1C7.8,5.2,7.6,5.1,7.5,5c-0.1-0.2,0-0.4,0.2-0.5C7.8,4.4,8.1,4.4,8.1,4.6
			 M3.7,11.6C3.9,11.6,4,11.8,4,12c0,0.2-0.2,0.4-0.4,0.4c-0.2,0-0.4-0.2-0.4-0.4C3.3,11.8,3.5,11.6,3.7,11.6 M7.5,19
			c0.1-0.2,0.4-0.2,0.5-0.1c0.2,0.1,0.2,0.4,0.1,0.5s-0.4,0.2-0.5,0.1C7.5,19.4,7.4,19.2,7.5,19 M15.9,19.4c-0.1-0.2,0-0.4,0.2-0.5
			c0.2-0.1,0.4,0,0.5,0.2c0.1,0.2,0,0.4-0.2,0.5C16.2,19.6,15.9,19.6,15.9,19.4 M20.3,12.4c-0.2,0-0.4-0.2-0.4-0.4
			c0-0.2,0.2-0.4,0.4-0.4c0.2,0,0.4,0.2,0.4,0.4C20.7,12.2,20.5,12.4,20.3,12.4 M16.5,5c-0.1,0.2-0.4,0.2-0.5,0.1
			c-0.2-0.1-0.2-0.4-0.1-0.5c0.1-0.2,0.4-0.2,0.5-0.1C16.5,4.6,16.6,4.8,16.5,5 M8.3,9.1c0.3,0.2,0.4,0.6,0.2,1
			c-0.2,0.3-0.6,0.4-1,0.2c-0.3-0.2-0.4-0.6-0.2-1C7.5,8.9,8,8.9,8.3,9.1 M7.6,13.8c0.3-0.2,0.8,0,0.9,0.3c0.2,0.3,0,0.8-0.3,0.9
			c-0.3,0.2-0.8,0-0.9-0.3C7.1,14.3,7.3,13.9,7.6,13.8 M11.3,16.7c0-0.4,0.4-0.7,0.7-0.6c0.4,0,0.7,0.4,0.6,0.7
			c0,0.4-0.4,0.7-0.7,0.6C11.5,17.4,11.3,17.1,11.3,16.7 M15.7,14.9c-0.3-0.2-0.4-0.6-0.2-1c0.2-0.3,0.6-0.4,1-0.2
			c0.3,0.2,0.4,0.6,0.2,1C16.5,15.1,16,15.1,15.7,14.9 M16.4,10.2c-0.3,0.2-0.8,0-0.9-0.3c-0.2-0.3,0-0.8,0.3-0.9
			c0.3-0.2,0.8,0,0.9,0.3C16.9,9.7,16.7,10.1,16.4,10.2 M12.7,7.3c0,0.4-0.4,0.7-0.7,0.6c-0.4,0-0.7-0.4-0.6-0.7
			c0-0.4,0.4-0.7,0.7-0.6C12.4,6.6,12.7,6.9,12.7,7.3 M5.7,7.8C5.9,8,6,8.3,5.8,8.5C5.7,8.7,5.4,8.8,5.2,8.6C4.9,8.5,4.9,8.2,5,8
			C5.2,7.7,5.5,7.7,5.7,7.8 M5.2,15.4c0.2-0.1,0.5,0,0.6,0.2c0.1,0.2,0,0.5-0.2,0.6c-0.2,0.1-0.5,0-0.6-0.2
			C4.9,15.8,5,15.5,5.2,15.4 M11.5,19.5c0-0.3,0.2-0.5,0.5-0.5s0.5,0.2,0.5,0.5s-0.2,0.5-0.5,0.5S11.5,19.8,11.5,19.5 M18.3,16.2
			c-0.2-0.1-0.3-0.4-0.1-0.7c0.1-0.2,0.4-0.3,0.7-0.1c0.2,0.1,0.3,0.4,0.1,0.7C18.8,16.3,18.5,16.3,18.3,16.2 M18.8,8.6
			c-0.2,0.1-0.5,0-0.6-0.2c-0.1-0.2,0-0.5,0.2-0.6c0.2-0.1,0.5,0,0.6,0.2C19.1,8.2,19,8.5,18.8,8.6 M12.5,4.5c0,0.3-0.2,0.5-0.5,0.5
			c-0.3,0-0.5-0.2-0.5-0.5c0-0.3,0.2-0.5,0.5-0.5C12.3,4,12.5,4.2,12.5,4.5"/>
	</g>
</g>
</svg>
