<?xml version="1.0" encoding="utf-8"?>
<!-- Generator: Adobe Illustrator 19.0.0, SVG Export Plug-In . SVG Version: 6.00 Build 0)  -->
<svg version="1.1" id="Layer_1" xmlns="http://www.w3.org/2000/svg" xmlns:xlink="http://www.w3.org/1999/xlink" x="0px" y="0px"
	 width="24px" height="24px" viewBox="0 0 24 24" style="enable-background:new 0 0 24 24;" xml:space="preserve">
<style type="text/css">
	.st0{fill:#EE3524;}
</style>
<path id="XMLID_6_" class="st0" d="M11.6,1.8c1.4,0,1.8,1,2.2,2C14,4.2,17.6,14,17.7,14.4c0,0.1,0,0.3-0.1,0.3
	c-0.2,0.1-2,0.8-2.1,0.9c-0.1,0-0.3,0-0.3-0.1s-0.9-2.3-0.9-2.5H9c-0.1,0.3-0.9,2.4-0.9,2.5c0,0.1-0.2,0.2-0.3,0.1
	c-0.1-0.1-2-0.8-2.1-0.9c-0.1,0-0.2-0.2-0.1-0.3C5.7,14,9.2,4.2,9.5,3.7C9.8,2.8,10.2,1.8,11.6,1.8 M5.3,19.5
	c-0.1,0-0.2,0.1-0.2,0.2V22c-0.1,0.2,0,0.3,0.2,0.3H18c0.1,0,0.2-0.1,0.2-0.2v-2.4c0-0.1-0.1-0.2-0.2-0.2H5.3 M11.6,5l-1.8,5.5h3.7
	L11.6,5L11.6,5z"/>
</svg>
