<?xml version="1.0" encoding="utf-8"?>
<!-- Generator: Adobe Illustrator 19.0.0, SVG Export Plug-In . SVG Version: 6.00 Build 0)  -->
<svg version="1.1" id="Layer_1" xmlns="http://www.w3.org/2000/svg" xmlns:xlink="http://www.w3.org/1999/xlink" x="0px" y="0px"
	 width="24px" height="24px" viewBox="0 0 24 24" style="enable-background:new 0 0 24 24;" xml:space="preserve">
<style type="text/css">
	.st0{fill:#F7941F;}
	.st1{fill:#FFFFFF;}
</style>
<path id="XMLID_687_" class="st0" d="M0,4.6h6.9c-4.1,2.8-5.1,8.5-2.2,12.5C5.2,18,6,18.8,6.9,19.4H0V4.6z M12,4.6
	c-4.1,0-7.4,3.3-7.4,7.4s3.3,7.4,7.4,7.4s7.4-3.3,7.4-7.4S16.1,4.6,12,4.6 M24,4.6h-6.9c4.1,2.8,5.1,8.5,2.2,12.5
	c-0.6,0.9-1.4,1.6-2.2,2.2H24V4.6z"/>
<path id="XMLID_683_" class="st1" d="M14.4,9.5c-0.3-0.9-1.2-1.1-2.3-0.9l-0.3-1.3l-0.8,0.2l0.3,1.3C11,8.9,10.8,8.9,10.6,9
	l-0.3-1.3L9.5,7.9l0.3,1.3c-0.2,0-0.3,0.1-0.5,0.1l0,0L8.2,9.6l0.2,0.9c0,0,0.6-0.2,0.6-0.1c0.3-0.1,0.5,0.1,0.6,0.2l0.4,1.5
	c0,0,0.1,0,0.1,0l-0.1,0l0.5,2.1c0,0.1,0,0.3-0.2,0.3c0,0-0.6,0.1-0.6,0.1l0.1,1l1.1-0.3c0.2,0,0.4-0.1,0.6-0.1l0.3,1.3l0.8-0.2
	l-0.3-1.3c0.2-0.1,0.4-0.1,0.6-0.2l0.3,1.3l0.8-0.2l-0.3-1.3c1.3-0.4,2.2-1,2-2.3c-0.2-1.1-0.8-1.4-1.6-1.4
	C14.4,10.7,14.6,10.2,14.4,9.5z M14,12.7c0.3,1-1.5,1.3-2,1.5l-0.4-1.8C12,12.2,13.7,11.7,14,12.7z M13,10.3
	c0.2,0.9-1.2,1.2-1.7,1.3l-0.4-1.6C11.3,9.8,12.7,9.3,13,10.3z"/>
</svg>
