<svg width="88" height="18" viewBox="0 0 88 18" fill="none" xmlns="http://www.w3.org/2000/svg">
<path d="M0 4C0 1.79086 1.79086 0 4 0H35V18H4C1.79086 18 0 16.2091 0 14V4Z" fill="url(#paint0_linear)"/>
<path d="M35 0H84C86.2091 0 88 1.79086 88 4V14C88 16.2091 86.2091 18 84 18H35V0Z" fill="url(#paint1_linear)"/>
<path d="M42.684 13.144C41.628 13.144 40.816 12.792 40.248 12.088C39.688 11.376 39.408 10.308 39.408 8.88402C39.408 7.46002 39.688 6.39602 40.248 5.69202C40.816 4.98002 41.628 4.62402 42.684 4.62402C43.588 4.62402 44.316 4.89202 44.868 5.42802C45.428 5.96402 45.708 6.76402 45.708 7.82802H44.136C44.136 7.21202 44.004 6.74402 43.74 6.42402C43.484 6.10402 43.132 5.94402 42.684 5.94402C42.124 5.94402 41.7 6.17602 41.412 6.64002C41.132 7.09602 40.992 7.74402 40.992 8.58402V9.18402C40.992 10.024 41.136 10.676 41.424 11.14C41.72 11.596 42.156 11.824 42.732 11.824C43.188 11.824 43.548 11.668 43.812 11.356C44.076 11.036 44.208 10.568 44.208 9.95202H45.708C45.708 10.992 45.432 11.784 44.88 12.328C44.328 12.872 43.596 13.144 42.684 13.144ZM46.8216 4.76802H48.3576V8.10402H50.9496V4.76802H52.4856V13H50.9496V9.47202H48.3576V13H46.8216V4.76802ZM55.8551 4.76802H57.6431L60.2951 13H58.7231L58.2191 11.38H55.1831L54.6911 13H53.2031L55.8551 4.76802ZM57.7991 10.012L56.9711 7.26402C56.9151 7.08802 56.8631 6.87602 56.8151 6.62802C56.7671 6.38002 56.7391 6.22002 56.7311 6.14802H56.6831C56.6671 6.22802 56.6351 6.39602 56.5871 6.65202C56.5391 6.90002 56.4911 7.10402 56.4431 7.26402L55.6031 10.012H57.7991ZM61.0247 4.76802H62.3807L64.9247 9.30402C64.9807 9.39202 65.0487 9.52802 65.1287 9.71202C65.2167 9.88802 65.2727 10.008 65.2967 10.072L65.3327 10.036L65.3207 9.35202V4.76802H66.6887V13H65.3207L62.7767 8.46402C62.7127 8.33602 62.6407 8.19202 62.5607 8.03202C62.4887 7.87202 62.4367 7.76002 62.4047 7.69602L62.3567 7.73202C62.3567 7.78002 62.3607 7.87202 62.3687 8.00802C62.3767 8.14402 62.3807 8.28002 62.3807 8.41602V13H61.0247V4.76802ZM71.0303 8.52402H74.4503V13H73.4543L73.1903 12.088C72.9263 12.432 72.6023 12.696 72.2183 12.88C71.8423 13.056 71.4343 13.144 70.9943 13.144C69.9623 13.144 69.1743 12.796 68.6303 12.1C68.0863 11.396 67.8143 10.324 67.8143 8.88402C67.8143 7.45202 68.1143 6.38402 68.7143 5.68002C69.3143 4.97602 70.1783 4.62402 71.3063 4.62402C71.8743 4.62402 72.3943 4.74402 72.8663 4.98402C73.3463 5.21602 73.7303 5.56002 74.0182 6.01602C74.3063 6.47202 74.4503 7.01602 74.4503 7.64802H72.8783C72.8783 7.11202 72.7223 6.69602 72.4103 6.40002C72.1063 6.09602 71.7223 5.94402 71.2583 5.94402C70.6343 5.94402 70.1663 6.17202 69.8543 6.62802C69.5503 7.08402 69.3983 7.73602 69.3983 8.58402V9.18402C69.3983 10.04 69.5503 10.696 69.8543 11.152C70.1663 11.6 70.6383 11.824 71.2703 11.824C71.7423 11.824 72.1263 11.644 72.4223 11.284C72.7263 10.916 72.8783 10.436 72.8783 9.84402H71.0303V8.52402ZM75.7786 4.76802H81.0226V6.13602H77.3146V8.10402H80.4946V9.47202H77.3146V11.632H81.0946V13H75.7786V4.76802Z" fill="#474647"/>
<path d="M6.71997 4.76802H10.26C10.692 4.76802 11.076 4.85602 11.412 5.03202C11.756 5.20002 12.024 5.44002 12.216 5.75202C12.408 6.05602 12.504 6.40802 12.504 6.80802C12.504 7.26402 12.384 7.66002 12.144 7.99602C11.912 8.32402 11.612 8.55202 11.244 8.68002V8.72802C11.668 8.85602 12.016 9.10402 12.288 9.47202C12.56 9.84002 12.696 10.28 12.696 10.792C12.696 11.24 12.584 11.632 12.36 11.968C12.144 12.296 11.852 12.552 11.484 12.736C11.116 12.912 10.708 13 10.26 13H6.71997V4.76802ZM9.83997 8.10402C10.192 8.10402 10.46 8.00802 10.644 7.81602C10.836 7.62402 10.932 7.38002 10.932 7.08402C10.932 6.78002 10.84 6.54802 10.656 6.38802C10.472 6.22002 10.224 6.13602 9.91197 6.13602H8.25597V8.10402H9.83997ZM10.008 11.632C10.336 11.632 10.604 11.544 10.812 11.368C11.02 11.184 11.124 10.928 11.124 10.6C11.124 10.264 11.02 9.99202 10.812 9.78402C10.612 9.56802 10.32 9.46002 9.93597 9.46002H8.25597V11.632H10.008ZM13.8216 4.76802H19.0656V6.13602H15.3576V8.10402H18.5376V9.47202H15.3576V11.632H19.1376V13H13.8216V4.76802ZM22.8681 13.144C22.3481 13.144 21.8721 13.048 21.4401 12.856C21.0081 12.656 20.6641 12.364 20.4081 11.98C20.1521 11.596 20.0241 11.132 20.0241 10.588L20.0361 10.324H21.6321L21.6201 10.516C21.6201 10.916 21.7361 11.236 21.9681 11.476C22.2001 11.708 22.5241 11.824 22.9401 11.824C23.3641 11.824 23.6761 11.732 23.8761 11.548C24.0841 11.356 24.1881 11.124 24.1881 10.852C24.1881 10.58 24.1161 10.36 23.9721 10.192C23.8281 10.016 23.6481 9.88002 23.4321 9.78402C23.2241 9.68802 22.9281 9.57602 22.5441 9.44802C22.0401 9.28802 21.6321 9.12802 21.3201 8.96802C21.0081 8.80802 20.7401 8.56402 20.5161 8.23602C20.3001 7.90802 20.1921 7.47202 20.1921 6.92802C20.1921 6.43202 20.3161 6.01202 20.5641 5.66802C20.8121 5.31602 21.1441 5.05602 21.5601 4.88802C21.9761 4.71202 22.4361 4.62402 22.9401 4.62402C23.7241 4.62402 24.3641 4.82802 24.8601 5.23602C25.3641 5.63602 25.6161 6.24002 25.6161 7.04802V7.19202H24.0441V7.08402C24.0441 6.73202 23.9441 6.45602 23.7441 6.25602C23.5441 6.04802 23.2721 5.94402 22.9281 5.94402C22.5681 5.94402 22.2841 6.02802 22.0761 6.19602C21.8761 6.35602 21.7761 6.56402 21.7761 6.82002C21.7761 7.04402 21.8441 7.22802 21.9801 7.37202C22.1161 7.51602 22.2841 7.63202 22.4841 7.72002C22.6921 7.80802 22.9761 7.90802 23.3361 8.02002C23.8561 8.18802 24.2761 8.35202 24.5961 8.51202C24.9161 8.66402 25.1921 8.90402 25.4241 9.23202C25.6561 9.56002 25.7721 9.99202 25.7721 10.528C25.7721 11.432 25.5121 12.096 24.9921 12.52C24.4801 12.936 23.7721 13.144 22.8681 13.144ZM28.4706 6.13602H26.4306V4.76802H32.0466V6.13602H30.0066V13H28.4706V6.13602Z" fill="white"/>
<defs>
<linearGradient id="paint0_linear" x1="17.5" y1="0" x2="17.5" y2="18" gradientUnits="userSpaceOnUse">
<stop stop-color="#5F6161"/>
<stop offset="1" stop-color="#1C1C1C"/>
</linearGradient>
<linearGradient id="paint1_linear" x1="61.5" y1="0" x2="61.5" y2="18" gradientUnits="userSpaceOnUse">
<stop stop-color="#F6F6F6"/>
<stop offset="1" stop-color="#CCCCCC"/>
</linearGradient>
</defs>
</svg>
