<?xml version="1.0" encoding="utf-8"?>
<!-- Generator: Adobe Illustrator 19.0.0, SVG Export Plug-In . SVG Version: 6.00 Build 0)  -->
<svg version="1.1" id="Layer_1" xmlns="http://www.w3.org/2000/svg" xmlns:xlink="http://www.w3.org/1999/xlink" x="0px" y="0px"
	 width="24px" height="24px" viewBox="0 0 24 24" style="enable-background:new 0 0 24 24;" xml:space="preserve">
<style type="text/css">
	.st0{fill:#F7941F;}
	.st1{fill:#FFFFFF;}
</style>
<g id="XMLID_3_">
	<path id="XMLID_100_" class="st0" d="M23.6,14.9c-1.6,6.4-8.1,10.3-14.5,8.7C2.7,22.1-1.2,15.5,0.4,9.1C2,2.7,8.5-1.2,14.9,0.4
		C21.3,2,25.2,8.5,23.6,14.9L23.6,14.9z"/>
	<path id="XMLID_94_" class="st1" d="M17.3,10.3c0.2-1.6-1-2.5-2.6-3l0.5-2.2l-1.3-0.3l-0.5,2.1c-0.3-0.1-0.7-0.2-1.1-0.2l0.5-2.1
		l-1.3-0.3L11,6.4c-0.3-0.1-0.6-0.1-0.8-0.2l0,0L8.3,5.7L8,7.1c0,0,1,0.2,1,0.2c0.5,0.1,0.6,0.5,0.6,0.8l-0.6,2.5c0,0,0.1,0,0.1,0
		c0,0-0.1,0-0.1,0L8.1,14c-0.1,0.2-0.2,0.4-0.6,0.3c0,0-1-0.2-1-0.2l-0.7,1.5L7.6,16c0.3,0.1,0.6,0.2,0.9,0.2l-0.5,2.2l1.3,0.3
		l0.5-2.2c0.4,0.1,0.7,0.2,1,0.3l-0.5,2.2l1.3,0.3l0.5-2.2c2.2,0.4,3.9,0.3,4.6-1.8c0.6-1.6,0-2.6-1.2-3.2
		C16.5,12,17.1,11.5,17.3,10.3L17.3,10.3z M14.3,14.5c-0.4,1.6-3.2,0.8-4.1,0.5l0.7-2.9C11.8,12.4,14.7,12.8,14.3,14.5L14.3,14.5z
		 M14.7,10.3c-0.4,1.5-2.7,0.7-3.4,0.5l0.7-2.6C12.7,8.4,15.1,8.7,14.7,10.3z"/>
</g>
</svg>
