<svg width="24" height="24" viewBox="0 0 24 24" fill="none" xmlns="http://www.w3.org/2000/svg">
<path fill-rule="evenodd" clip-rule="evenodd" d="M2.66016 14.6289L5.32031 11.9688L2.66016 9.30859L0 11.9688L2.66016 14.6289Z" fill="#F3BA2F"/>
<path fill-rule="evenodd" clip-rule="evenodd" d="M21.2773 14.6289L23.9375 11.9688L21.2773 9.30859L18.6172 11.9688L21.2773 14.6289Z" fill="#F3BA2F"/>
<path fill-rule="evenodd" clip-rule="evenodd" d="M11.9688 14.6289L14.6289 11.9688L11.9688 9.30859L9.30859 11.9688L11.9688 14.6289Z" fill="#F3BA2F"/>
<path fill-rule="evenodd" clip-rule="evenodd" d="M13.2969 1.32812L11.9688 0L4.65625 7.3125L7.3125 9.97266L11.9688 5.32031L16.6211 9.97266L19.2812 7.3125L13.2969 1.32812Z" fill="#F3BA2F"/>
<path fill-rule="evenodd" clip-rule="evenodd" d="M10.6367 22.6055L11.9688 23.9375L19.2812 16.6211L16.6211 13.9648L11.9688 18.6172L7.3125 13.9648L4.65625 16.6211L10.6367 22.6055Z" fill="#F3BA2F"/>
</svg>
