<?xml version="1.0" encoding="utf-8"?>
<!-- Generator: Adobe Illustrator 19.0.0, SVG Export Plug-In . SVG Version: 6.00 Build 0)  -->
<svg version="1.1" id="Layer_1" xmlns="http://www.w3.org/2000/svg" xmlns:xlink="http://www.w3.org/1999/xlink" x="0px" y="0px"
	 width="24px" height="24px" viewBox="0 0 24 24" style="enable-background:new 0 0 24 24;" xml:space="preserve">
<style type="text/css">
	.st0{fill:#FFFFFF;}
	.st1{fill:url(#XMLID_2_);}
	.st2{fill:#262C67;}
</style>
<g id="XMLID_4_">
	<circle id="XMLID_47_" class="st0" cx="12" cy="12" r="10.5"/>
	<linearGradient id="XMLID_2_" gradientUnits="userSpaceOnUse" x1="5.5779" y1="2.2834" x2="19.9606" y2="24.0497">
		<stop  offset="0" style="stop-color:#F4D936"/>
		<stop  offset="1" style="stop-color:#E28226"/>
	</linearGradient>
	<path id="XMLID_44_" class="st1" d="M12,0C5.4,0,0,5.4,0,12s5.4,12,12,12s12-5.4,12-12S18.6,0,12,0z M12,21.2
		c-5.1,0-9.2-4.1-9.2-9.2S6.9,2.8,12,2.8s9.2,4.1,9.2,9.2S17.1,21.2,12,21.2z"/>
	<g id="XMLID_8_">
		<g id="XMLID_39_">
			<path id="XMLID_145_" class="st2" d="M8,16.1l0.5-0.9H14c0.8,0,1.4-0.6,1.4-1.4v0c0-0.8-0.6-1.4-1.4-1.4H9.4v-0.9H14
				c1.3,0,2.3,1,2.3,2.3v0c0,1.3-1,2.3-2.3,2.3H8z"/>
			<path id="XMLID_40_" class="st2" d="M14,16.4H7.6l0.7-1.4H14c0.6,0,1.1-0.5,1.1-1.1s-0.5-1.1-1.1-1.1H9.1v-1.4H14
				c1.4,0,2.6,1.2,2.6,2.6S15.4,16.4,14,16.4z M8.4,15.8H14c1.1,0,2.1-0.9,2.1-2.1s-0.9-2.1-2.1-2.1H9.6v0.4H14
				c0.9,0,1.6,0.7,1.6,1.6s-0.7,1.6-1.6,1.6H8.6L8.4,15.8z"/>
		</g>
		<g id="XMLID_34_">
			<path id="XMLID_144_" class="st2" d="M8,7.7l0.5,0.9h4.9c0.8,0,1.4,0.6,1.4,1.4v0c0,0.8-0.6,1.4-1.4,1.4H9.8v0.9h3.5
				c1.3,0,2.3-1,2.3-2.3v0c0-1.3-1-2.3-2.3-2.3H8z"/>
			<path id="XMLID_35_" class="st2" d="M13.4,12.6H9.6v-1.4h3.8c0.6,0,1.1-0.5,1.1-1.1S14,8.9,13.4,8.9H8.3L7.6,7.5h5.8
				c1.4,0,2.6,1.2,2.6,2.6S14.8,12.6,13.4,12.6z M10.1,12.1h3.3c1.1,0,2.1-0.9,2.1-2.1S14.5,8,13.4,8h-5l0.2,0.4h4.8
				c0.9,0,1.6,0.7,1.6,1.6s-0.7,1.6-1.6,1.6h-3.3V12.1z"/>
		</g>
		<g id="XMLID_29_">
			<rect id="XMLID_143_" x="9.4" y="7.8" class="st2" width="0.9" height="8.3"/>
			<path id="XMLID_30_" class="st2" d="M10.6,16.4H9.1V7.5h1.4V16.4z M9.6,15.8h0.4V8.1H9.6V15.8z"/>
		</g>
		<g id="XMLID_24_">
			<rect id="XMLID_142_" x="10.5" y="6.4" class="st2" width="0.9" height="1.8"/>
			<path id="XMLID_25_" class="st2" d="M11.6,8.3h-1.2V6.2h1.2V8.3z M10.6,8.1h0.7V6.5h-0.7V8.1z"/>
		</g>
		<g id="XMLID_19_">
			<rect id="XMLID_141_" x="12.5" y="6.4" class="st2" width="0.9" height="1.8"/>
			<path id="XMLID_20_" class="st2" d="M13.6,8.3h-1.2V6.2h1.2V8.3z M12.6,8.1h0.7V6.5h-0.7V8.1z"/>
		</g>
		<g id="XMLID_14_">
			<rect id="XMLID_140_" x="10.5" y="15.6" class="st2" width="0.9" height="1.8"/>
			<path id="XMLID_15_" class="st2" d="M11.6,17.6h-1.2v-2.1h1.2V17.6z M10.6,17.3h0.7v-1.6h-0.7V17.3z"/>
		</g>
		<g id="XMLID_9_">
			<rect id="XMLID_139_" x="12.5" y="15.6" class="st2" width="0.9" height="1.8"/>
			<path id="XMLID_10_" class="st2" d="M13.6,17.6h-1.2v-2.1h1.2V17.6z M12.6,17.3h0.7v-1.6h-0.7V17.3z"/>
		</g>
	</g>
	<path id="XMLID_5_" class="st2" d="M12,20.2c-4.5,0-8.2-3.7-8.2-8.2c0-4.5,3.7-8.2,8.2-8.2c4.5,0,8.2,3.7,8.2,8.2
		C20.2,16.5,16.5,20.2,12,20.2z M12,4.6c-4.1,0-7.4,3.3-7.4,7.4s3.3,7.4,7.4,7.4s7.4-3.3,7.4-7.4S16.1,4.6,12,4.6z"/>
</g>
</svg>
