<svg width="24" height="24" viewBox="0 0 24 24" fill="none" xmlns="http://www.w3.org/2000/svg">
<circle cx="12" cy="12" r="11.65" fill="black" stroke="white" stroke-width="0.7"/>
<path d="M8.08709 20.0894C9.24748 20.7187 10.1116 20.962 11.5034 21.0867C12.8952 21.2114 14.6667 20.818 14.6667 20.818C13.6544 20.818 12.5156 20.7127 11.6299 20.3929C10.4912 20.214 9.14669 19.466 8.36383 18.8427C7.58097 18.2194 7.16606 17.4317 6.56143 16.5987C6.05531 15.6013 5.96978 14.9424 5.78978 13.9337C5.60979 12.9251 5.66168 11.8896 5.94164 10.9034C6.22161 9.91715 6.72251 9.00535 7.40747 8.23511C8.09244 7.46486 8.77649 6.90368 9.73198 6.50063C10.7032 6.04985 11.2503 5.75263 13.2748 5.62796V4.00729C11.9514 3.95214 10.3666 4.21183 9.14897 4.72546C7.9313 5.2391 6.84606 6.01529 5.97316 6.99687C5.10025 7.97846 4.46191 9.14044 4.10512 10.3973C3.74834 11.6541 3.68221 12.9738 3.9116 14.2591C4.14098 15.5445 4.66004 16.7628 5.43056 17.8243C6.20108 18.8858 6.9267 19.46 8.08709 20.0894Z" fill="white"/>
<path d="M10.4972 19.7227C11.6397 20.2793 11.7437 20.211 13.861 20.6047C15.9782 20.9985 18.2222 19.3859 18.2222 19.3859C17.2256 19.3859 15.4795 19.3859 14.1082 19.2618C12.987 19.1036 12.7369 19.0138 11.6149 18.5176C10.4929 18.0214 9.84151 17.5177 9.24619 16.781C8.74785 15.8989 8.30141 15.1921 8.12418 14.3001C8.0256 13.8039 8.1091 12.4706 8.38476 11.5984C8.66041 10.7262 9.15361 9.91975 9.82804 9.23853C10.5025 8.55732 11.2832 8.29057 12.2382 7.97381C13.3602 7.60168 14.7315 7.84977 15.4795 8.2219L16.1029 6.60932C15.1055 5.9891 12.0373 6.06546 11.58 6.2C11.0062 6.36882 9.76005 6.88383 9.3924 7.1651C9.02475 7.44638 8.66029 7.80631 8.24885 8.2219C7.38937 9.09003 6.8548 9.96335 6.50351 11.0749C6.15221 12.1865 6.15298 13.5354 6.37884 14.6722C6.6047 15.809 7.12287 16.7806 7.88154 17.7194C8.6402 18.6583 9.35466 19.1661 10.4972 19.7227Z" fill="white"/>
<path d="M16.5423 9.28062C17.0801 9.69904 17.5262 10.2223 17.8529 10.8183L16.2712 11.6738C16.062 11.2921 15.7763 10.9569 15.4318 10.6889C15.0874 10.421 14.6913 10.2258 14.2681 10.1155C13.8449 10.0051 13.4034 9.98196 12.9708 10.0474C12.5382 10.1128 12.1237 10.2654 11.7527 10.4958C11.3817 10.7263 11.0621 11.0296 10.8135 11.3873C10.5649 11.745 10.3926 12.1494 10.3071 12.5757C10.2217 13.0019 10.1059 13.3948 10.1977 13.8197C10.2894 14.2447 10.4447 14.9584 10.6986 15.3124C10.7752 15.4783 11.0932 15.9344 11.7527 16.4319C12.577 17.0539 13.4027 17.427 15.4318 17.6758C16.3339 17.6758 18.8385 17.8002 20.2161 17.427C20.3162 17.5266 19.1725 18.6295 18.5881 19.1685C18.1835 19.2929 16.8446 19.467 14.7253 19.1685C12.3652 18.7953 11.3247 18.1734 10.8135 17.8002C9.00186 16.5066 8.55353 14.8884 8.55581 14.2411C8.41256 13.5776 8.40747 12.892 8.54085 12.2264C8.67423 11.5609 8.94326 10.9295 9.3314 10.371C9.71955 9.81256 10.2186 9.33888 10.7979 8.9791C11.3771 8.61931 12.0244 8.38103 12.6998 8.2789C13.3752 8.17677 14.0645 8.21295 14.7253 8.38521C15.3861 8.55748 16.0044 8.8622 16.5423 9.28062Z" fill="white"/>
</svg>
