<?xml version="1.0" standalone="no"?>
<!DOCTYPE svg PUBLIC "-//W3C//DTD SVG 1.0//EN" "http://www.w3.org/TR/2001/REC-SVG-20010904/DTD/svg10.dtd">
<svg xmlns="http://www.w3.org/2000/svg" xmlns:xlink="http://www.w3.org/1999/xlink" id="body_1" width="24" height="24">

<g transform="matrix(0.75 0 0 0.75 0 0)">
	<g transform="matrix(0.095119596 0 0 0.09483734 0.000416324 0)">
	</g>
    <path transform="matrix(0.095119596 0 0 0.09483734 0.000416324 0)"  d="M168.205 0.713942L209.7098 43.220955L105.18124 147.7311L63.676453 106.21261L168.205 0.713942z" stroke="#F0B90B" stroke-width="1" fill="#F0B90B" fill-rule="nonzero" />
	<g transform="matrix(0.095119596 0 0 0.09483734 0.000416324 0)">
	</g>
    <path transform="matrix(0.095119596 0 0 0.09483734 0.000416324 0)"  d="M231.17401 63.7056L272.6788 106.21261L105.18124 273.7144L63.676453 232.19592L231.17401 63.7056z" stroke="#F0B90B" stroke-width="1" fill="#F0B90B" fill-rule="nonzero" />
	<g transform="matrix(0.095119596 0 0 0.09483734 0.000416324 0)">
	</g>
    <path transform="matrix(0.095119596 0 0 0.09483734 0.000416324 0)"  d="M42.212234 126.69726L83.717026 169.20427L42.212234 210.72275L0.707447 169.20427L42.212234 126.69726z" stroke="#F0B90B" stroke-width="1" fill="#F0B90B" fill-rule="nonzero" />
	<g transform="matrix(0.095119596 0 0 0.09483734 0.000416324 0)">
	</g>
    <path transform="matrix(0.095119596 0 0 0.09483734 0.000416324 0)"  d="M294.19775 126.69726L335.70255 169.20427L168.205 336.70605L126.70021 295.1876L294.19775 126.69726z" stroke="#F0B90B" stroke-width="1" fill="#F0B90B" fill-rule="nonzero" />
</g>
</svg>