<?xml version="1.0" encoding="utf-8"?>
<!-- Generator: Adobe Illustrator 19.0.0, SVG Export Plug-In . SVG Version: 6.00 Build 0)  -->
<svg version="1.1" id="Layer_1" xmlns="http://www.w3.org/2000/svg" xmlns:xlink="http://www.w3.org/1999/xlink" x="0px" y="0px"
	 width="24px" height="24px" viewBox="0 0 24 24" style="enable-background:new 0 0 24 24;" xml:space="preserve">
<style type="text/css">
	.st0{fill:#F1F2F2;}
	.st1{fill:#F48220;}
	.st2{fill:#0E90D0;}
	.st3{fill:#231F20;}
</style>
<circle id="XMLID_1_" class="st0" cx="12" cy="12" r="12"/>
<path id="XMLID_9_" class="st1" d="M23.5,8.7C22.1,3.7,17.5,0,12,0S1.9,3.7,0.5,8.7H23.5z"/>
<path id="XMLID_10_" class="st2" d="M0.5,15.3c1.4,5,6,8.7,11.5,8.7s10.1-3.7,11.5-8.7H0.5z"/>
<path id="XMLID_2_" class="st3" d="M8.7,19.2c-3.1-0.1-5.2-3.4-4.1-6.7c0.9-2.8,2.6-5.2,5.3-6.7c1.7-1,3.5-1.5,5.4-1.5
	c1.4,0,2.5,0.3,2.9,0.7l0.3,0.2l-2,3.2l-0.4-0.3c-0.2-0.1-0.9-0.4-2-0.4c-1,0-2,0.3-2.9,0.9c-1.3,0.9-2.3,2.3-2.7,4
	c-0.6,2,0.2,3.1,2.1,3.1c0.8,0,1.7-0.2,2.4-0.4l0.7-0.2l-0.6,3.3C12.9,18.4,11.4,19.3,8.7,19.2z"/>
</svg>
