<?xml version="1.0" standalone="no"?>
<!DOCTYPE svg PUBLIC "-//W3C//DTD SVG 1.0//EN" "http://www.w3.org/TR/2001/REC-SVG-20010904/DTD/svg10.dtd">
<svg xmlns="http://www.w3.org/2000/svg" xmlns:xlink="http://www.w3.org/1999/xlink" id="body_1" width="24" height="24">

<g transform="matrix(0.75 0 0 0.75 0 0)">
	<g transform="matrix(1.3333334 0 0 1.3333334 0 0)">
	</g>
    <path transform="matrix(1.3333334 0 0 1.3333334 0 0)"  d="M12 0C 18.628906 0 24 5.375 24 12C 24 18.628906 18.628906 24 12 24C 5.375 24 0 18.628906 0 12C 0 5.375 5.375 0 12 0z" stroke="none" fill="#F5AC37" fill-rule="nonzero" />
	<g transform="matrix(1.3333334 0 0 1.3333334 0 0)">
	</g>
    <path transform="matrix(1.3333334 0 0 1.3333334 0 0)"  d="M12.441406 12.847656L17.003906 12.847656C 17.097656 12.847656 17.144531 12.847656 17.152344 12.71875C 17.1875 12.257812 17.1875 11.789062 17.152344 11.324219C 17.152344 11.234375 17.105469 11.199219 17.007812 11.199219L17.007812 11.199219L7.933594 11.199219C 7.824219 11.199219 7.792969 11.234375 7.792969 11.339844L7.792969 11.339844L7.792969 12.675781C 7.792969 12.847656 7.792969 12.847656 7.972656 12.847656L7.972656 12.847656L12.441406 12.847656zM16.644531 9.636719C 16.65625 9.601562 16.65625 9.566406 16.644531 9.53125C 16.566406 9.367188 16.476562 9.207031 16.371094 9.058594C 16.214844 8.804688 16.027344 8.574219 15.816406 8.363281C 15.71875 8.234375 15.601562 8.121094 15.472656 8.023438C 14.824219 7.472656 14.050781 7.082031 13.222656 6.886719C 12.804688 6.792969 12.375 6.746094 11.945312 6.75L11.945312 6.75L7.917969 6.75C 7.808594 6.75 7.792969 6.792969 7.792969 6.894531L7.792969 6.894531L7.792969 9.554688C 7.792969 9.667969 7.792969 9.699219 7.933594 9.699219L7.933594 9.699219L16.589844 9.699219C 16.589844 9.699219 16.664062 9.683594 16.679688 9.636719L16.679688 9.636719L16.640625 9.636719zM16.644531 14.40625C 16.515625 14.394531 16.386719 14.394531 16.257812 14.40625L16.257812 14.40625L7.941406 14.40625C 7.832031 14.40625 7.792969 14.40625 7.792969 14.558594L7.792969 14.558594L7.792969 17.160156C 7.792969 17.28125 7.792969 17.308594 7.941406 17.308594L7.941406 17.308594L11.78125 17.308594C 11.964844 17.324219 12.148438 17.3125 12.328125 17.273438C 12.886719 17.234375 13.433594 17.113281 13.957031 16.914062C 14.148438 16.847656 14.332031 16.761719 14.503906 16.65625L14.503906 16.65625L14.558594 16.65625C 15.457031 16.191406 16.1875 15.453125 16.648438 14.550781C 16.648438 14.550781 16.703125 14.4375 16.644531 14.410156zM6.285156 18.660156L6.285156 14.511719C 6.285156 14.414062 6.285156 14.398438 6.164062 14.398438L6.164062 14.398438L4.539062 14.398438C 4.449219 14.398438 4.410156 14.398438 4.410156 14.28125L4.410156 14.28125L4.410156 12.855469L6.148438 12.855469C 6.246094 12.855469 6.285156 12.855469 6.285156 12.726562L6.285156 12.726562L6.285156 11.316406C 6.285156 11.226562 6.285156 11.207031 6.164062 11.207031L6.164062 11.207031L4.539062 11.207031C 4.449219 11.207031 4.410156 11.207031 4.410156 11.085938L4.410156 11.085938L4.410156 9.765625C 4.410156 9.683594 4.410156 9.660156 4.53125 9.660156L4.53125 9.660156L6.140625 9.660156C 6.253906 9.660156 6.285156 9.660156 6.285156 9.519531L6.285156 9.519531L6.285156 5.476562C 6.285156 5.355469 6.285156 5.324219 6.433594 5.324219L6.433594 5.324219L12.058594 5.324219C 12.46875 5.34375 12.875 5.386719 13.273438 5.460938C 14.101562 5.613281 14.894531 5.910156 15.621094 6.332031C 16.105469 6.613281 16.546875 6.957031 16.941406 7.351562C 17.238281 7.660156 17.507812 7.992188 17.746094 8.347656C 17.980469 8.707031 18.175781 9.09375 18.332031 9.496094C 18.347656 9.601562 18.449219 9.671875 18.554688 9.652344L18.554688 9.652344L19.898438 9.652344C 20.070312 9.652344 20.070312 9.652344 20.078125 9.820312L20.078125 9.820312L20.078125 11.050781C 20.078125 11.167969 20.03125 11.199219 19.910156 11.199219L19.910156 11.199219L18.875 11.199219C 18.773438 11.199219 18.742188 11.199219 18.75 11.335938C 18.789062 11.792969 18.789062 12.25 18.75 12.707031C 18.75 12.832031 18.75 12.847656 18.890625 12.847656L18.890625 12.847656L20.078125 12.847656C 20.128906 12.917969 20.078125 12.984375 20.078125 13.050781C 20.082031 13.140625 20.082031 13.226562 20.078125 13.3125L20.078125 13.3125L20.078125 14.222656C 20.078125 14.347656 20.039062 14.386719 19.925781 14.386719L19.925781 14.386719L18.507812 14.386719C 18.410156 14.367188 18.3125 14.429688 18.292969 14.53125C 17.953125 15.40625 17.414062 16.195312 16.714844 16.824219C 16.460938 17.054688 16.191406 17.269531 15.914062 17.46875C 15.613281 17.640625 15.320312 17.820312 15.011719 17.964844C 14.445312 18.21875 13.851562 18.40625 13.242188 18.527344C 12.664062 18.628906 12.078125 18.675781 11.488281 18.667969L11.488281 18.667969L6.28125 18.667969L6.28125 18.660156z" stroke="none" fill="#FEFEFD" fill-rule="nonzero" />
</g>
</svg>