<?xml version="1.0" encoding="utf-8"?>
<!-- Generator: Adobe Illustrator 19.0.0, SVG Export Plug-In . SVG Version: 6.00 Build 0)  -->
<svg version="1.1" id="Layer_1" xmlns="http://www.w3.org/2000/svg" xmlns:xlink="http://www.w3.org/1999/xlink" x="0px" y="0px"
	 width="24px" height="24px" viewBox="0 0 24 24" style="enable-background:new 0 0 24 24;" xml:space="preserve">
<style type="text/css">
	.st0{fill:#2075BC;}
	.st1{fill:#FFFFFF;}
</style>
<g id="XMLID_4_">
	<path id="Circle" class="st0" d="M23.6,14.9c-1.6,6.4-8.1,10.3-14.5,8.7C2.7,22-1.2,15.5,0.4,9.1C2,2.7,8.5-1.2,14.9,0.4
		C21.3,2,25.2,8.5,23.6,14.9z"/>
	<path id="D_26_" class="st1" d="M19.5,9.1c0-0.3-0.1-0.5-0.2-0.7C19.2,8.2,19,8,18.7,7.9c-0.2-0.1-0.5-0.2-0.8-0.2H7.8L7,9.9h9.2
		l-1.5,4.5h-0.7H8.8H5.6l-0.7,2.2h10.2c0.3,0,0.6-0.1,0.9-0.2c0.3-0.1,0.6-0.3,0.9-0.5c0.3-0.2,0.5-0.5,0.7-0.7
		c0.2-0.3,0.4-0.6,0.5-0.9l1.4-4.2C19.5,9.7,19.6,9.4,19.5,9.1z"/>
	<polygon id="_x2D__26_" class="st1" points="10.7,11.1 5.2,11.1 4.5,13.2 10,13.2 	"/>
</g>
</svg>
