<?xml version="1.0" encoding="utf-8"?>
<!-- Generator: Adobe Illustrator 19.0.0, SVG Export Plug-In . SVG Version: 6.00 Build 0)  -->
<svg version="1.1" id="Layer_1" xmlns="http://www.w3.org/2000/svg" xmlns:xlink="http://www.w3.org/1999/xlink" x="0px" y="0px"
	 width="24px" height="24px" viewBox="0 0 24 24" style="enable-background:new 0 0 24 24;" xml:space="preserve">
<style type="text/css">
	.st0{fill:#010101;}
	.st1{fill:#FFFFFF;}
</style>
<g id="XMLID_1_">
	<circle id="XMLID_343_" class="st0" cx="12" cy="12" r="12"/>
	<g id="XMLID_346_">
		<path id="XMLID_347_" class="st1" d="M12,21.1C12,21.1,12,21.1,12,21.1c-0.1,0-0.1,0-0.2-0.1l-5.7-3.6c0,0,0,0,0,0l0,0l0,0l0,0
			c0,0,0,0,0,0l0,0l0,0l0,0l0,0l0,0l0,0C6,17.5,6,17.4,6,17.4c0,0,0,0,0-0.1l0,0l0,0c0,0,0-0.1,0-0.2c0,0,0,0,0,0l1.9-8.5
			c0,0,0-0.1,0-0.1l0,0l0,0c0,0,0,0,0,0c0,0,0,0,0,0l3.8-5.2c0.1-0.1,0.2-0.2,0.3-0.2c0,0,0,0,0,0c0.1,0,0.2,0.1,0.3,0.2l3.8,5.2
			c0,0,0.1,0.1,0.1,0.2l1.9,8.5c0,0,0,0,0,0c0,0.1,0,0.1,0,0.2l0,0l0,0c0,0,0,0,0,0.1c0,0.1-0.1,0.1-0.1,0.2l0,0l0,0l0,0l0,0
			c0,0,0,0,0,0l0,0c0,0,0,0,0,0l0,0l0,0l0,0c0,0,0,0,0,0l-5.7,3.6C12.1,21.1,12.1,21.1,12,21.1z M13.4,17.6l-0.7,2.3l3.7-2.3H13.4z
			 M7.6,17.6l3.7,2.3l-0.7-2.3H7.6z M11.4,17.6l0.6,1.9l0.6-1.9H11.4z M13.7,16.8H17L14.9,13L13.7,16.8z M11.1,16.8h1.7l1.5-4.7
			L12,7.9l-2.4,4.2L11.1,16.8z M7,16.8h3.4L9.1,13L7,16.8z M8.2,10.2l-1,4.6L8.8,12L8.2,10.2z M15.2,12l1.6,2.8l-1-4.6L15.2,12z
			 M8.6,8.8l0.7,2.3l2.3-4V4.6L8.6,8.8z M12.4,7l2.3,4l0.7-2.3l-3-4.1V7z"/>
	</g>
</g>
</svg>
