<?xml version="1.0" encoding="utf-8"?>
<!-- Generator: Adobe Illustrator 19.0.0, SVG Export Plug-In . SVG Version: 6.00 Build 0)  -->
<svg version="1.1" id="Layer_1" xmlns="http://www.w3.org/2000/svg" xmlns:xlink="http://www.w3.org/1999/xlink" x="0px" y="0px"
	 width="24px" height="24px" viewBox="0 0 24 24" style="enable-background:new 0 0 24 24;" xml:space="preserve">
<style type="text/css">
	.st0{fill:#124B9A;}
	.st1{fill:#8DC63F;}
</style>
<circle id="XMLID_4_" class="st0" cx="12" cy="12" r="12"/>
<path id="XMLID_5_" class="st1" d="M12.7,8.8c1.4,0,3,0,4.5,0c1.5,0,1.7-0.2,2-1.9c-4.2,0-7.1,0-9.1,0c-2.9,0-3.5,0.6-4.1,3.7
	c-0.1,0.2-0.1,0.3-0.1,0.6h-2l1.6,2c0,0.3-0.1,0.7-0.2,1c-0.3,1.6,0.1,3.1,1.8,3.1c3,0,6.1,0,9.1,0c0.7,0,0.9-0.3,1-0.8
	c0.1-0.2,0.2-1.1,0.2-1.1s-3.8,0-5.2,0c-0.5,0-0.9,0-1.3,0c-0.6,0-1-0.3-1.2-0.6l0,0c-0.5-0.7,0.1-1.6,1-1.6l6,0c0,0,0.7,0,1-0.1
	c0.3-0.2,0.4-0.6,0.4-0.6l0.3-1.3h-6.5C10.3,11,10.3,10,10.3,10l0,0c0-0.9,0.8-1.2,1.2-1.2C11.9,8.8,12,8.8,12.7,8.8z"/>
</svg>
