<?xml version="1.0" encoding="utf-8"?>
<!-- Generator: Adobe Illustrator 19.0.0, SVG Export Plug-In . SVG Version: 6.00 Build 0)  -->
<svg version="1.1" id="Layer_1" xmlns="http://www.w3.org/2000/svg" xmlns:xlink="http://www.w3.org/1999/xlink" x="0px" y="0px"
	 width="24px" height="24px" viewBox="0 0 24 24" style="enable-background:new 0 0 24 24;" xml:space="preserve">
<style type="text/css">
	.st0{fill:#3E5AA9;}
	.st1{fill:#FFFFFF;}
</style>
<g id="XMLID_5_">
	<circle id="XMLID_3_" class="st0" cx="12" cy="12" r="12"/>
	<path id="XMLID_6_" class="st1" d="M15.1,9.1l-2.4,6.6l0,0l-0.4-0.9l-0.9,0.4l2.4-6.6l0.9-0.4L15.1,9.1z M21.1,9.3l-2.4,6.6
		L18.3,15l-0.9,0.4l0.1-0.2l2.4-6.6l0.9-0.4l0.4,0.9L21.1,9.3z M16,15l1.4-3.9l-0.9,0.4L16,10.7l-1.4,3.9l0.4,0.9L16,15z M8.4,11.2
		H4.2l0.7,0.7l-0.7,0.7h4.2l0.7-0.7L8.4,11.2z M3.7,14.1h6.8l-0.7,0.7l0.7,0.7H3.7l-0.7-0.7L3.7,14.1z M5.7,8.3h6.8L11.8,9l0.7,0.7
		H5.7L5,9L5.7,8.3z"/>
</g>
</svg>
