<svg width="24" height="24" viewBox="0 0 24 24" fill="none" xmlns="http://www.w3.org/2000/svg">
<path fill-rule="evenodd" clip-rule="evenodd" d="M24 12C24 18.6289 18.6289 24 12 24C5.37109 24 0 18.6289 0 12C0 5.37109 5.37109 0 12 0C18.6289 0 24 5.37109 24 12Z" fill="#1FC5C9"/>
<path fill-rule="evenodd" clip-rule="evenodd" d="M8.47266 16.8555L10.0938 15.2305C11.5664 16.1016 13.4453 15.8633 14.6523 14.6523C15.8633 13.4453 16.1016 11.5664 15.2305 10.0938L16.8555 8.47266C18.5938 10.8594 18.3359 14.1562 16.2461 16.2461C14.1562 18.3359 10.8594 18.5938 8.47266 16.8555ZM7.14453 15.5273C5.40625 13.1406 5.66406 9.84375 7.75391 7.75391C9.84375 5.66406 13.1406 5.40625 15.5273 7.14453L13.9062 8.76953C12.4336 7.89844 10.5547 8.13672 9.34766 9.34766C8.13672 10.5547 7.89844 12.4336 8.76953 13.9062L7.14453 15.5273ZM18 7.5C17.1719 7.5 16.5 6.82812 16.5 6C16.5 5.17188 17.1719 4.5 18 4.5C18.8281 4.5 19.5 5.17188 19.5 6C19.5 6.82812 18.8281 7.5 18 7.5ZM6 19.5C5.17188 19.5 4.5 18.8281 4.5 18C4.5 17.1719 5.17188 16.5 6 16.5C6.82812 16.5 7.5 17.1719 7.5 18C7.5 18.8281 6.82812 19.5 6 19.5Z" fill="white"/>
</svg>
