<?xml version="1.0" standalone="no"?>
<!DOCTYPE svg PUBLIC "-//W3C//DTD SVG 1.0//EN" "http://www.w3.org/TR/2001/REC-SVG-20010904/DTD/svg10.dtd">
<svg xmlns="http://www.w3.org/2000/svg" xmlns:xlink="http://www.w3.org/1999/xlink" id="body_1" width="24" height="24">

<defs>
    <linearGradient transform="matrix(1 0 0 1 0 0)"  id="1" x1="129.11" y1="130.39" x2="19.11" y2="21.89">
        <stop stop-color="#00EDD3" offset="0%"/>
        <stop stop-color="#1B456E" offset="100%"/>
    </linearGradient>
    <linearGradient transform="matrix(1 0 0 1 0 0)"  id="230" x1="129.14" y1="131.85" x2="52.14" y2="53.85">
        <stop stop-color="#00EDD3" offset="0%"/>
        <stop stop-color="#1B456E" offset="100%"/>
    </linearGradient>
</defs>

<g transform="matrix(0.75 0 0 0.75 0 0)">
	<g transform="matrix(1.3333334 0 0 1.3333334 0 0)">
	</g>
    <path transform="matrix(1.3333334 0 0 1.3333334 0 0)"  d="M0 11.988281C -0.0117188 18.617188 5.351562 23.996094 11.980469 24.007812C 18.605469 24.019531 23.988281 18.65625 24 12.027344L24 12.027344L24 11.9375C 24 11.015625 23.890625 10.09375 23.675781 9.199219C 23.492188 8.527344 22.8125 8.121094 22.136719 8.28125C 21.460938 8.441406 21.03125 9.105469 21.167969 9.785156C 22.164062 13.894531 20.308594 18.167969 16.621094 20.238281C 12.9375 22.3125 8.324219 21.683594 5.328125 18.699219C 2.332031 15.71875 1.6875 11.105469 3.746094 7.414062C 5.808594 3.71875 10.070312 1.847656 14.183594 2.828125C 14.875 2.992188 15.566406 2.5625 15.730469 1.871094C 15.808594 1.542969 15.753906 1.195312 15.578125 0.90625C 15.398438 0.617188 15.113281 0.410156 14.78125 0.335938C 8.339844 -1.214844 1.867188 2.757812 0.324219 9.199219C 0.109375 10.113281 0 11.050781 0 11.988281z" stroke="none" fill="url(#1)" />
	<g transform="matrix(1.3333334 0 0 1.3333334 0 0)">
	</g>
    <path transform="matrix(1.3333334 0 0 1.3333334 0 0)"  d="M18.09375 3.15625C 18.074219 3.179688 18.0625 3.199219 18.050781 3.210938C 17.757812 3.523438 17.574219 3.925781 17.535156 4.355469L17.535156 4.355469L17.535156 4.5625C 17.535156 4.613281 17.527344 4.652344 17.527344 4.707031C 17.4375 5.621094 16.988281 6.464844 16.277344 7.046875C 15.566406 7.628906 14.648438 7.90625 13.734375 7.8125C 13.582031 7.800781 13.429688 7.777344 13.28125 7.742188C 13.191406 7.722656 13.105469 7.699219 13.023438 7.667969C 12.652344 7.574219 12.273438 7.535156 11.894531 7.546875C 10.789062 7.566406 9.730469 7.992188 8.917969 8.742188C 8.878906 8.78125 8.828125 8.816406 8.785156 8.867188C 7.574219 9.984375 7.070312 11.675781 7.476562 13.277344C 7.882812 14.875 9.128906 16.121094 10.730469 16.527344C 12.328125 16.9375 14.019531 16.433594 15.140625 15.222656C 15.324219 15.035156 15.496094 14.832031 15.644531 14.617188C 16.378906 13.5625 16.628906 12.242188 16.328125 10.992188C 16.300781 10.910156 16.28125 10.828125 16.265625 10.746094C 16.265625 10.734375 16.253906 10.722656 16.253906 10.703125C 16.046875 9.804688 16.203125 8.863281 16.691406 8.082031C 17.179688 7.300781 17.960938 6.746094 18.859375 6.542969C 19.015625 6.503906 19.179688 6.480469 19.34375 6.472656L19.34375 6.472656L19.414062 6.460938C 19.488281 6.453125 19.558594 6.449219 19.632812 6.449219L19.632812 6.449219L19.652344 6.449219C 20.101562 6.40625 20.523438 6.210938 20.839844 5.894531C 20.914062 5.808594 20.988281 5.730469 21.046875 5.644531C 21.347656 5.226562 21.464844 4.707031 21.378906 4.199219C 21.289062 3.695312 21.003906 3.246094 20.582031 2.953125C 19.8125 2.40625 18.765625 2.496094 18.09375 3.15625z" stroke="none" fill="url(#230)" />
</g>
</svg>