<?xml version="1.0" encoding="utf-8"?>
<!-- Generator: Adobe Illustrator 19.0.0, SVG Export Plug-In . SVG Version: 6.00 Build 0)  -->
<svg version="1.1" id="Layer_1" xmlns="http://www.w3.org/2000/svg" xmlns:xlink="http://www.w3.org/1999/xlink" x="0px" y="0px"
	 width="24px" height="24px" viewBox="0 0 24 24" style="enable-background:new 0 0 24 24;" xml:space="preserve">
<style type="text/css">
	.st0{fill:#BFBEBE;}
	.st1{fill:#FFFFFF;}
</style>
<g id="XMLID_389_">
	<path id="XMLID_102_" class="st0" d="M24,12c0,6.6-5.4,12-12,12C5.4,24,0,18.6,0,12C0,5.4,5.4,0,12,0C18.6,0,24,5.4,24,12"/>
	<path id="XMLID_101_" class="st0" d="M21.5,12c0,5.2-4.2,9.5-9.5,9.5c-5.2,0-9.5-4.2-9.5-9.5c0-5.2,4.2-9.5,9.5-9.5
		C17.2,2.5,21.5,6.8,21.5,12"/>
	<path id="XMLID_89_" class="st1" d="M11.3,15.2l0.8-2.9l1.8-0.7l0.5-1.7l0,0l-1.8,0.7l1.3-4.9h-3.7L8.4,12L7,12.5l-0.5,1.8L8,13.8
		l-1,3.8h9.9l0.6-2.4L11.3,15.2"/>
</g>
</svg>
