<?xml version="1.0" encoding="utf-8"?>
<!-- Generator: Adobe Illustrator 19.0.0, SVG Export Plug-In . SVG Version: 6.00 Build 0)  -->
<svg version="1.1" id="Layer_1" xmlns="http://www.w3.org/2000/svg" xmlns:xlink="http://www.w3.org/1999/xlink" x="0px" y="0px"
	 width="24px" height="24px" viewBox="0 0 24 24" style="enable-background:new 0 0 24 24;" xml:space="preserve">
<style type="text/css">
	.st0{fill:#FFFFFF;}
	.st1{fill:#8DD6F7;}
</style>
<g id="XMLID_1_">
	<path id="XMLID_21_" class="st0" d="M12,23.5C5.7,23.5,0.5,18.3,0.5,12C0.5,5.7,5.7,0.5,12,0.5c6.3,0,11.5,5.2,11.5,11.5
		C23.5,18.3,18.3,23.5,12,23.5z"/>
	<path id="XMLID_18_" class="st1" d="M12,1c6.1,0,11,4.9,11,11s-4.9,11-11,11S1,18.1,1,12S5.9,1,12,1 M12,0C5.4,0,0,5.4,0,12
		s5.4,12,12,12s12-5.4,12-12S18.6,0,12,0L12,0z"/>
</g>
<rect id="XMLID_2_" x="6.9" y="6.6" class="st1" width="2.3" height="10.6"/>
<rect id="XMLID_3_" x="10.6" y="6.6" class="st1" width="2.3" height="10.6"/>
<rect id="XMLID_4_" x="14.2" y="6.6" class="st1" width="2.3" height="10.6"/>
<rect id="XMLID_5_" x="5.3" y="4.7" transform="matrix(0.906 -0.4233 0.4233 0.906 -1.7701 5.5847)" class="st0" width="12.8" height="4.2"/>
</svg>
