<?xml version="1.0" encoding="utf-8"?>
<!-- Generator: Adobe Illustrator 19.0.0, SVG Export Plug-In . SVG Version: 6.00 Build 0)  -->
<svg version="1.1" id="Layer_1" xmlns="http://www.w3.org/2000/svg" xmlns:xlink="http://www.w3.org/1999/xlink" x="0px" y="0px"
	 width="24px" height="24px" viewBox="0 0 24 24" style="enable-background:new 0 0 24 24;" xml:space="preserve">
<style type="text/css">
	.st0{fill:#F26122;}
	.st1{fill:#EA1D25;}
	.st2{fill:#F69E1F;}
	.st3{fill:#FFFFFF;}
	.st4{fill:#F5B619;}
	.st5{fill:#2A2B6D;}
</style>
<g id="_Group_">
	<rect id="XMLID_30_" x="10.5" y="14.3" class="st0" width="5.2" height="8.5"/>
	<path id="_Path_" class="st1" d="M11,18.6c0-1.7,0.8-3.2,2.1-4.3c-2.4-1.9-5.8-1.4-7.6,0.9S4,21,6.4,22.9c1,0.8,2.1,1.2,3.4,1.2
		c1.2,0,2.4-0.4,3.4-1.2C11.8,21.8,11,20.2,11,18.6z"/>
	<path id="XMLID_60_" class="st2" d="M21.4,21.9v-0.2h0.1v0h-0.2v0h0.1L21.4,21.9L21.4,21.9z M21.7,21.9v-0.2h-0.1l-0.1,0.2
		l-0.1-0.2h-0.1v0.2h0v-0.2l0.1,0.1L21.7,21.9l0-0.2L21.7,21.9L21.7,21.9z"/>
	<path id="XMLID_27_" class="st2" d="M21.9,18.6c0,3-2.4,5.4-5.4,5.4c-1.2,0-2.4-0.4-3.3-1.2c2.4-1.9,2.8-5.3,0.9-7.7
		c-0.3-0.3-0.6-0.6-0.9-0.9c2.4-1.9,5.8-1.4,7.6,0.9C21.5,16.2,21.9,17.4,21.9,18.6z"/>
</g>
<path id="_Compound_Path_" class="st3" d="M7.2,19.5v-0.9c0-0.3-0.2-0.5-0.5-0.6c0,0-0.1,0-0.1,0c-0.2,0-0.4,0.1-0.5,0.3
	c-0.1-0.2-0.3-0.3-0.5-0.3c-0.2,0-0.3,0.1-0.4,0.2v-0.2H4.9v1.4h0.3v-0.8c0-0.2,0.1-0.4,0.3-0.4c0,0,0,0,0.1,0
	c0.2,0,0.3,0.1,0.3,0.4v0.8h0.3v-0.8c0-0.2,0.1-0.4,0.3-0.4c0,0,0,0,0.1,0c0.2,0,0.3,0.1,0.3,0.4v0.8H7.2z M11.9,18.1h-0.5v-0.4
	h-0.3v0.4h-0.3v0.3h0.3V19c0,0.3,0.1,0.5,0.5,0.5c0.1,0,0.3,0,0.4-0.1l-0.1-0.3c-0.1,0.1-0.2,0.1-0.3,0.1c-0.1,0-0.2-0.1-0.2-0.2
	c0,0,0,0,0,0v-0.7h0.5V18.1z M14.6,18.1c-0.2,0-0.3,0.1-0.4,0.2v-0.2h-0.3v1.4h0.3v-0.8c0-0.2,0.1-0.4,0.3-0.4c0.1,0,0.1,0,0.2,0
	l0.1-0.3C14.7,18.1,14.6,18.1,14.6,18.1z M10.5,18.2c-0.2-0.1-0.4-0.2-0.6-0.2c-0.4,0-0.6,0.2-0.6,0.5c0,0.2,0.2,0.4,0.5,0.4l0.2,0
	c0.2,0,0.3,0.1,0.3,0.2c0,0.1-0.1,0.2-0.3,0.2c-0.2,0-0.3,0-0.5-0.2l-0.2,0.2c0.2,0.1,0.4,0.2,0.6,0.2c0.4,0,0.6-0.2,0.6-0.5
	c0-0.3-0.2-0.4-0.5-0.4l-0.2,0c-0.1,0-0.3-0.1-0.3-0.2s0.1-0.2,0.3-0.2c0.2,0,0.3,0,0.5,0.1L10.5,18.2z M14.9,18.8
	c0,0.4,0.3,0.7,0.7,0.8c0,0,0.1,0,0.1,0c0.2,0,0.4,0,0.5-0.2L16,19.2c-0.1,0.1-0.2,0.1-0.4,0.1c-0.3,0-0.5-0.3-0.4-0.5
	c0-0.2,0.2-0.4,0.4-0.4c0.1,0,0.3,0,0.4,0.1l0.2-0.2c-0.1-0.1-0.3-0.2-0.5-0.2c-0.4,0-0.7,0.2-0.8,0.6
	C14.9,18.7,14.9,18.8,14.9,18.8z M12.9,18.1c-0.4,0-0.7,0.3-0.7,0.8c0,0.4,0.3,0.7,0.7,0.8c0,0,0.1,0,0.1,0c0.2,0,0.4-0.1,0.6-0.2
	l-0.2-0.2c-0.1,0.1-0.3,0.1-0.4,0.2c-0.2,0-0.4-0.2-0.4-0.4h1.1v-0.1C13.5,18.4,13.3,18.1,12.9,18.1z M12.8,18.3
	c0.2,0,0.4,0.1,0.4,0.3c0,0,0,0,0,0h-0.8C12.5,18.5,12.6,18.3,12.8,18.3z M8.9,18.8v-0.7H8.6v0.2c-0.1-0.1-0.3-0.2-0.5-0.2
	c-0.4,0-0.8,0.3-0.8,0.8c0,0.4,0.3,0.8,0.8,0.8c0.2,0,0.4-0.1,0.5-0.2v0.2h0.3V18.8z M7.8,18.8c0-0.2,0.2-0.4,0.5-0.4
	c0.2,0,0.4,0.2,0.4,0.5c0,0.2-0.2,0.4-0.5,0.4C8,19.3,7.8,19.1,7.8,18.8C7.8,18.9,7.8,18.8,7.8,18.8z M18.9,18.1
	c-0.2,0-0.3,0.1-0.4,0.2v-0.2h-0.3v1.4h0.3v-0.8c0-0.2,0.1-0.4,0.3-0.4c0.1,0,0.1,0,0.2,0l0.1-0.3C19.1,18.1,19,18.1,18.9,18.1z
	 M21.3,19.3C21.3,19.3,21.3,19.3,21.3,19.3c0.1,0,0.1,0,0.1,0c0,0,0,0,0,0c0,0,0,0,0,0.1c0,0,0,0,0,0.1c0,0,0,0,0,0c0,0,0,0,0,0
	c0,0,0,0-0.1,0c0,0,0,0-0.1,0c0,0,0,0,0,0c0,0,0,0,0,0c0,0,0,0,0-0.1c0,0,0,0,0-0.1c0,0,0,0,0,0C21.2,19.4,21.2,19.3,21.3,19.3
	C21.2,19.3,21.2,19.3,21.3,19.3z M21.3,19.6C21.3,19.6,21.3,19.6,21.3,19.6C21.3,19.6,21.3,19.6,21.3,19.6l0.1-0.1c0,0,0,0,0,0
	c0,0,0,0,0,0c0,0,0,0,0,0l0,0c0,0,0,0,0,0c0,0,0,0,0,0c0,0,0,0,0,0l0,0c0,0,0,0,0,0c0,0,0,0,0,0C21.2,19.5,21.2,19.5,21.3,19.6
	L21.3,19.6C21.2,19.6,21.2,19.6,21.3,19.6z M21.3,19.4C21.3,19.4,21.3,19.4,21.3,19.4C21.3,19.4,21.3,19.4,21.3,19.4
	C21.3,19.5,21.3,19.5,21.3,19.4C21.3,19.5,21.3,19.5,21.3,19.4l0.1,0.1h0L21.3,19.4L21.3,19.4l0,0.1h0L21.3,19.4L21.3,19.4z
	 M21.2,19.4L21.2,19.4L21.2,19.4L21.2,19.4L21.2,19.4z M17.8,18.8v-0.7h-0.3v0.2c-0.1-0.1-0.3-0.2-0.5-0.2c-0.4,0-0.8,0.3-0.8,0.8
	c0,0.4,0.3,0.8,0.8,0.8c0.2,0,0.4-0.1,0.5-0.2v0.2h0.3V18.8z M16.7,18.8c0-0.2,0.2-0.4,0.5-0.4c0.2,0,0.4,0.2,0.4,0.5
	c0,0.2-0.2,0.4-0.5,0.4C16.9,19.3,16.7,19.1,16.7,18.8C16.6,18.9,16.6,18.8,16.7,18.8z M20.7,18.8v-1.3h-0.3v0.8
	c-0.1-0.1-0.3-0.2-0.5-0.2c-0.4,0-0.8,0.3-0.8,0.8c0,0.4,0.3,0.8,0.8,0.8c0.2,0,0.4-0.1,0.5-0.2v0.2h0.3V18.8z M19.6,18.8
	c0-0.2,0.2-0.4,0.5-0.4c0.2,0,0.4,0.2,0.4,0.5c0,0.2-0.2,0.4-0.5,0.4C19.8,19.3,19.6,19.1,19.6,18.8C19.6,18.9,19.6,18.8,19.6,18.8
	L19.6,18.8z"/>
<rect id="XMLID_8_" x="1.2" y="2.6" transform="matrix(-0.9818 0.19 -0.19 -0.9818 25.3934 14.916)" class="st3" width="21.7" height="12.1"/>
<rect id="XMLID_7_" x="2.2" y="13.5" transform="matrix(-0.9818 0.19 -0.19 -0.9818 28.7255 26.2438)" class="st4" width="21.8" height="2"/>
<rect id="XMLID_6_" x="0" y="2.1" transform="matrix(-0.9818 0.19 -0.19 -0.9818 22.1797 4.0507)" class="st5" width="21.8" height="2"/>
<path id="XMLID_32_" class="st5" d="M9.3,6.6l-1.2,5.7l-1.4,0.3l-1.9-4C4.7,8.3,4.6,8.2,4.4,8.2C3.9,8,3.4,8,3,8l0-0.2l2.3-0.5
	C5.6,7.3,5.9,7.5,6,7.8l1.2,2.9l0.7-3.9L9.3,6.6L9.3,6.6z M15.7,9c-0.3-1.4-2.2-1.1-2.3-1.7c0-0.2,0.1-0.4,0.5-0.6
	c0.5-0.1,0.9-0.1,1.4,0l0-1.2c-0.4-0.1-0.9-0.1-1.3,0c-1.3,0.3-2.2,1.2-2,2.2c0.1,0.8,0.9,1.1,1.5,1.2c0.6,0.2,0.8,0.3,0.8,0.5
	c0.1,0.4-0.3,0.6-0.7,0.7c-0.5,0.1-1,0.1-1.5-0.1l0,1.2c0.3,0.1,1,0.1,1.6,0C15.1,11,15.9,10.1,15.7,9 M19.6,10.1l1.3-0.2l-2.1-5.1
	L17.6,5c-0.3,0-0.5,0.2-0.5,0.5l-1.1,5.3l1.4-0.3l0.1-0.8l1.8-0.3L19.6,10.1z M17.7,8.5L18,6.4l0.8,1.9L17.7,8.5z M11.3,6.2
	l-0.1,5.5L9.8,12l0.1-5.5L11.3,6.2z"/>
</svg>
