<?xml version="1.0" encoding="utf-8"?>
<!-- Generator: Adobe Illustrator 19.0.0, SVG Export Plug-In . SVG Version: 6.00 Build 0)  -->
<svg version="1.1" id="Layer_1" xmlns="http://www.w3.org/2000/svg" xmlns:xlink="http://www.w3.org/1999/xlink" x="0px" y="0px"
	 width="24px" height="24px" viewBox="0 0 24 24" style="enable-background:new 0 0 24 24;" xml:space="preserve">
<style type="text/css">
	.st0{fill:#FFFFFF;}
	.st1{fill:#DF2428;}
</style>
<circle id="XMLID_96_" class="st0" cx="12" cy="12" r="12"/>
<path id="XMLID_13_" class="st1" d="M24,12c0,6.6-5.4,12-12,12S0,18.6,0,12c0-1.8,0.4-3.6,1.1-5.1c-0.5,1.2-0.7,2.5-0.7,3.6
	c0,5.4,4.4,6.2,6.2,6.2c2.8,0,6.2-1.4,9-4c0,0-0.4,2-0.5,2.6c-0.1,0.6,0.3,1.1,0.9,1.1h0.2c0.6,0,1.1-0.5,1.2-1.1l1-5.7
	c0.1-0.6-0.3-1.1-0.9-1.1h-5.7c-0.6,0-1.2,0.3-1.3,1c0,0,0,0.2,0,0.3c-0.1,0.6,0.3,1.1,0.9,1.1h3c0,0-0.1,0.1-0.1,0.1
	c-2,1.9-4.6,3-6.7,3c-2.1,0-4.4-1.3-4.4-4.3C3.2,3.6,9,0,12,0C18.6,0,24,5.4,24,12z"/>
</svg>
