<?xml version="1.0" encoding="utf-8"?>
<!-- Generator: Adobe Illustrator 19.0.0, SVG Export Plug-In . SVG Version: 6.00 Build 0)  -->
<svg version="1.1" id="Layer_1" xmlns="http://www.w3.org/2000/svg" xmlns:xlink="http://www.w3.org/1999/xlink" x="0px" y="0px"
	 width="24px" height="24px" viewBox="0 0 24 24" style="enable-background:new 0 0 24 24;" xml:space="preserve">
<style type="text/css">
	.st0{fill:#425FAC;}
	.st1{fill:#FFFFFF;}
</style>
<g id="XMLID_413_">
	<circle id="XMLID_314_" class="st0" cx="12" cy="12" r="12"/>
	<path id="XMLID_319_" class="st1" d="M9.6,13.6c-1.5,0-2.8,1.2-2.8,2.8s1.2,2.8,2.8,2.8s2.8-1.2,2.8-2.8S11.2,13.6,9.6,13.6
		L9.6,13.6z M9.6,18.3c-1.1,0-1.9-0.9-1.9-1.9c0-1.1,0.9-1.9,1.9-1.9s1.9,0.9,1.9,1.9C11.6,17.5,10.7,18.3,9.6,18.3L9.6,18.3z
		 M15.6,7.7c-1.5,0-2.8,1.2-2.8,2.8s1.2,2.8,2.8,2.8s2.8-1.2,2.8-2.8S17.1,7.7,15.6,7.7L15.6,7.7z M15.6,12.4
		c-1.1,0-1.9-0.9-1.9-1.9s0.9-1.9,1.9-1.9s1.9,0.9,1.9,1.9C17.5,11.5,16.6,12.4,15.6,12.4L15.6,12.4z M9.6,7.7
		c-1.3,0-2.5,0.9-2.7,2.2s0.4,2.6,1.6,3.1c1.4,0.6,3-0.1,3.6-1.5c0.4-1,0.2-2.2-0.6-3h0.8V7.7H9.6z M11.6,10.5
		c0,1.1-0.9,1.9-1.9,1.9s-1.9-0.9-1.9-1.9s0.9-1.9,1.9-1.9S11.6,9.4,11.6,10.5L11.6,10.5L11.6,10.5z"/>
</g>
</svg>
