<svg width="24" height="24" viewBox="0 0 24 24" fill="none" xmlns="http://www.w3.org/2000/svg">
<g clip-path="url(#clip0)">
<path d="M7.11938 21.3C5.61938 21.3 4.11938 21.3 2.61938 21.3C2.21938 21.3 1.91938 20.9 2.01938 20.5C2.31938 18.9 2.51938 17.3 2.71938 15.7C2.91938 14.3 3.21938 12.8 3.41938 11.4C3.61938 10.4 3.71938 9.3 3.91938 8.3C4.11938 6.7 4.41938 5.2 4.61938 3.6C4.81938 2.8 4.91938 1.9 5.01938 1C5.11938 0.4 5.61938 0 6.21938 0C8.81938 0 11.3194 0 13.9194 0C15.3194 0 16.7194 0.2 18.0194 0.8C19.3194 1.5 20.1194 2.5 20.4194 4C20.5194 4.7 20.5194 5.4 20.3194 6C19.8194 5.7 19.2194 5.5 18.6194 5.4C17.9194 5.3 17.1194 5.2 16.3194 5.2C14.4194 5.2 12.5194 5.2 10.6194 5.2C10.2194 5.2 9.81938 5.4 9.71938 5.8C9.61938 6.1 9.51938 6.3 9.51938 6.5C9.41938 7.3 9.31938 8.1 9.11938 8.9C9.01938 9.5 8.91938 10.1 8.81938 10.8C8.71938 11.6 8.61938 12.4 8.41938 13.1C8.41938 13.4 8.21938 13.6 8.31938 13.9C8.21938 14.1 8.21938 14.2 8.21938 14.4C8.11938 15.3 7.91938 16.2 7.81938 17.1C7.61938 18.2 7.51938 19.3 7.31938 20.4C7.31938 20.7 7.31938 21 7.11938 21.3Z" fill="#263A83"/>
<path d="M7.11938 21.3C7.31938 21 7.21938 20.7 7.31938 20.4C7.51938 19.3 7.61938 18.2 7.81938 17.1C7.91938 16.2 8.11939 15.3 8.21939 14.4C8.21939 14.2 8.31938 14 8.31938 13.9C8.61938 13.5 8.91938 13.3 9.41938 13.3C10.6194 13.3 11.9194 13.4 13.1194 13.2C14.2194 13.1 15.3194 12.8 16.2194 12.3C17.7194 11.5 18.7194 10.2 19.4194 8.7C19.7194 8 20.0194 7.2 20.1194 6.4C20.1194 6.4 20.1194 6.4 20.1194 6.3V6.2C21.3194 6.8 21.9194 7.8 22.0194 9.1C22.1194 10.2 22.0194 11.2 21.7194 12.2C21.5194 13 21.2194 13.8 20.7194 14.5C20.0194 15.6 18.9194 16.4 17.6194 16.9C16.9194 17.1 16.2194 17.3 15.5194 17.4C14.9194 17.5 14.3194 17.5 13.7194 17.5C13.1194 17.5 12.7194 17.8 12.6194 18.4C12.4194 19.6 12.2194 20.9 12.0194 22.1C11.9194 22.5 11.9194 22.9 11.8194 23.4C11.7194 23.9 11.4194 24.2 10.8194 24.2C9.61938 24.2 8.31938 24.2 7.11938 24.2C6.61938 24.2 6.41938 23.9 6.51938 23.5C6.61938 22.9 6.71938 22.4 6.81938 21.8C7.21938 21.5 7.21938 21.4 7.11938 21.3Z" fill="#2398D5"/>
<path d="M20.3194 6.1V6.2C20.3194 6.2 20.3194 6.2 20.3194 6.3C20.2194 7.1 20.0194 7.9 19.6194 8.6C19.0194 10.2 17.9194 11.4 16.4194 12.2C15.4194 12.7 14.4194 13 13.3194 13.1C12.1194 13.2 10.8194 13.2 9.61938 13.2C9.11938 13.2 8.71938 13.4 8.51938 13.8C8.41938 13.5 8.51938 13.3 8.61938 13C8.71938 12.2 8.91938 11.4 9.01938 10.6C8.91938 10.1 9.01938 9.5 9.11938 8.9C9.21938 8.1 9.41938 7.3 9.51938 6.5C9.51938 6.3 9.61938 6.1 9.61938 5.9C9.81938 5.5 10.1194 5.3 10.5194 5.3C12.4194 5.3 14.3194 5.3 16.2194 5.3C17.0194 5.3 17.7194 5.3 18.5194 5.5C19.1194 5.6 19.7194 5.8 20.3194 6.1C20.2194 6.1 20.3194 6.1 20.3194 6.1Z" fill="#232D66"/>
</g>
<defs>
<clipPath id="clip0">
<rect width="24" height="24" fill="white"/>
</clipPath>
</defs>
</svg>
