<?xml version="1.0" encoding="utf-8"?>
<!-- Generator: Adobe Illustrator 19.0.0, SVG Export Plug-In . SVG Version: 6.00 Build 0)  -->
<svg version="1.1" id="Layer_1" xmlns="http://www.w3.org/2000/svg" xmlns:xlink="http://www.w3.org/1999/xlink" x="0px" y="0px"
	 width="24px" height="24px" viewBox="0 0 24 24" style="enable-background:new 0 0 24 24;" xml:space="preserve">
<style type="text/css">
	.st0{fill:#EA2127;}
	.st1{fill:#FFFFFF;}
</style>
<circle id="XMLID_14_" class="st0" cx="12" cy="12" r="12"/>
<g id="XMLID_17_">
	<g id="XMLID_3_">
		<path id="XMLID_15_" class="st1" d="M21.4,7.8c-0.2,0.1-0.3,0.1-0.3,0.3C21,8.2,21,8.5,21,8.8v6.4c0,0.3,0,0.6,0.1,0.7
			c0.1,0.1,0.2,0.2,0.3,0.3c0.2,0.1,0.4,0.1,0.8,0.1v0.3c-0.5,0-1.1,0-1.9,0c-0.9,0-1.5,0-2,0v-0.3c0.4,0,0.6-0.1,0.8-0.1
			c0.2-0.1,0.3-0.1,0.3-0.3c0.1-0.1,0.1-0.4,0.1-0.7V8.3l-3.7,8.3h-0.2l-3.8-8.3l-0.2,6.8c0,0.3,0,0.6,0.1,0.7
			c0.1,0.2,0.2,0.3,0.4,0.4c0.2,0.1,0.5,0.1,0.9,0.1v0.3c-0.4,0-0.9,0-1.6,0c-0.6,0-1.1,0-1.4,0v-0.3c0.4,0,0.6-0.1,0.8-0.1
			c0.2-0.1,0.3-0.2,0.4-0.4c0.1-0.2,0.1-0.4,0.1-0.7l0.2-6.3c0-0.3,0-0.6-0.1-0.7c-0.1-0.1-0.2-0.2-0.3-0.3
			c-0.2-0.1-0.4-0.1-0.8-0.1V7.4c0.3,0,0.8,0,1.4,0c0.5,0,1,0,1.3,0l3.4,7.4l3.3-7.4h0.7c0.8,0,1.5,0,1.9,0v0.3
			C21.9,7.7,21.6,7.7,21.4,7.8z"/>
	</g>
	<g id="XMLID_2_">
		<path id="XMLID_10_" class="st1" d="M5.4,12.9v2.3c0,0.3,0,0.6,0.1,0.7c0.1,0.1,0.2,0.2,0.4,0.3c0.2,0.1,0.4,0.1,0.8,0.1v0.3
			c-0.4,0-1.1,0-1.9,0c-0.7,0-1.3,0-1.6,0v-0.3c0.3,0,0.5-0.1,0.7-0.1C4,16.1,4.1,16,4.1,15.9c0.1-0.1,0.1-2.7,0.1-3
			c-2.3-0.2-2.9-0.4,0-0.3c0-1.9,0-2.5,0-3.8c0-0.1,0-0.5-0.1-0.7C4.1,8,4,7.9,3.8,7.8C3.7,7.8,3.5,7.7,3.2,7.7V7.5
			c0.4,0,0.9,0,1.6,0l1.4,0c0.2,0,0.3,0,0.6,0c1,0,1.8,0.2,2.3,0.7C9.5,8.6,9.8,9.2,9.8,10c0,0.5-0.1,0.9-0.3,1.4
			c-0.2,0.4-0.6,0.8-1.1,1.1c-0.5,0.3-1.2,0.4-2,0.4H5.4z M5.7,7.8C5.6,7.9,5.5,8,5.5,8.1C5.4,8.3,5.4,8.5,5.4,8.8v3.8h0.9
			c0.8,0,1.4-0.2,1.7-0.7c0.3-0.4,0.5-1.1,0.5-1.8c0-0.8-0.2-1.4-0.5-1.8C7.6,7.9,7.1,7.7,6.3,7.7C6.1,7.7,5.9,7.7,5.7,7.8z"/>
	</g>
</g>
</svg>
