<?xml version="1.0" encoding="utf-8"?>
<!-- Generator: Adobe Illustrator 19.0.0, SVG Export Plug-In . SVG Version: 6.00 Build 0)  -->
<svg version="1.1" id="Layer_1" xmlns="http://www.w3.org/2000/svg" xmlns:xlink="http://www.w3.org/1999/xlink" x="0px" y="0px"
	 width="24px" height="24px" viewBox="0 0 24 24" style="enable-background:new 0 0 24 24;" xml:space="preserve">
<style type="text/css">
	.st0{fill:#F78C1F;}
</style>
<g id="XMLID_12_">
	<g id="XMLID_13_">
		<g id="XMLID_14_">
			<path id="XMLID_9_" class="st0" d="M16.2,13.3c0,0.3,0,0.4-0.1,0.4c-0.1,0-0.2-0.1-0.3-0.3c-0.1-0.2-0.2-0.4-0.1-0.6
				c0-0.1,0.1-0.1,0.2-0.1C16,12.8,16.1,13.2,16.2,13.3z"/>
			<path id="XMLID_8_" class="st0" d="M14.9,13.9c0.3,0.2,0.3,0.5,0.2,0.7c-0.1,0.1-0.2,0.2-0.4,0.2c-0.1,0-0.3-0.1-0.4-0.1
				c-0.2-0.2-0.3-0.5-0.2-0.7c0.1-0.1,0.2-0.1,0.3-0.1C14.7,13.7,14.8,13.8,14.9,13.9z"/>
		</g>
	</g>
</g>
<path id="XMLID_6_" class="st0" d="M23.6,23.7c-2.4-3.1-4.7-3.6-6.9-4.1c-2.7-0.6-4.1-2.1-5.1-3.8c-0.2-0.3-0.3-0.3-0.3,0.2
	c0,0.5,0,1.2,0.1,1.9l0,0c-0.1,0-0.2,0-0.3,0c-3.9,0-7.1-3.2-7.1-7.1c0-3.9,3.2-7.1,7.1-7.1s7.1,3.2,7.1,7.1c0,0.3,0,0.6,0,0.8
	c-0.5-0.1-1.5-0.1-2.2,0c-0.3,0-0.2,0.1,0,0.2c2.3,0.4,3.9,1.9,4.3,4.5c0,0.1,0.1,0.1,0.1,0c1-1.6,1.5-3.5,1.5-5.5
	C21.8,4.8,17,0,11.1,0S0.4,4.8,0.4,10.7c0,5.9,4.8,10.7,10.7,10.7c1.6,0,3.1-0.3,5.4-0.3c2.1,0,4.3,0.7,6.7,2.9"/>
</svg>
