<?xml version="1.0" encoding="utf-8"?>
<!-- Generator: Adobe Illustrator 19.0.0, SVG Export Plug-In . SVG Version: 6.00 Build 0)  -->
<svg version="1.1" id="Layer_1" xmlns="http://www.w3.org/2000/svg" xmlns:xlink="http://www.w3.org/1999/xlink" x="0px" y="0px"
	 width="24px" height="24px" viewBox="0 0 24 24" style="enable-background:new 0 0 24 24;" xml:space="preserve">
<style type="text/css">
	.st0{fill:#F37021;}
	.st1{fill:#FFFFFF;}
</style>
<path id="XMLID_8_" class="st0" d="M12,0C5.3,0,0,5.4,0,12s5.4,12,12,12s12-5.4,12-12C24.1,5.4,18.6,0,12,0"/>
<path id="XMLID_17_" class="st1" d="M23.9,10.5c-0.3-0.6-0.7-1.1-1.2-1.5c-3.4-3.3-9.8-2.5-14.2,2C5.4,14,4.1,18,4.7,21.3
	c0.1-2.8,1.4-6,3.9-8.5c4.5-4.5,10.9-5.4,14.3-2c0.4,0.4,0.9,1,1.2,1.5c0-0.1,0-0.3,0-0.3C24.1,11.3,24,10.6,23.9,10.5 M6.4,8.6
	c4.8-4.8,11.9-5.4,16.1-1.3c0.3,0.3,0.7,0.8,1,1.2c-0.3-1.3-1.2-2.9-2.1-4c-4.3-3.2-10.8-2.4-15.2,2C2.9,9.9,1.6,14.3,2.4,18
	C2.4,14.7,3.7,11.2,6.4,8.6"/>
</svg>
