<?xml version="1.0" standalone="no"?>
<!DOCTYPE svg PUBLIC "-//W3C//DTD SVG 1.0//EN" "http://www.w3.org/TR/2001/REC-SVG-20010904/DTD/svg10.dtd">
<svg xmlns="http://www.w3.org/2000/svg" xmlns:xlink="http://www.w3.org/1999/xlink" id="body_1" width="24" height="24">

<g transform="matrix(0.75 0 0 0.75 0 0)">
	<g transform="matrix(1.3333334 0 0 1.3333334 0 0)">
	</g>
    <path transform="matrix(1.3333334 0 0 1.3333334 0 0)"  d="M10.402344 19.457031L0 23.976562L6.605469 5.59375L10.402344 19.457031zM10.613281 19.414062L16.949219 19.464844L6.851562 5.664062zM17.546875 19.113281L22.398438 8.238281L20.5625 6.882812zM15.207031 2.066406L7.222656 5.320312L18.890625 3.035156zM14.203125 2.066406L9.246094 2.167969L8.523438 3.417969z" stroke="none" fill="#384182" fill-rule="nonzero" />
	<g transform="matrix(1.3333334 0 0 1.3333334 0 0)">
	</g>
    <path transform="matrix(1.3333334 0 0 1.3333334 0 0)"  d="M20.210938 6.464844L7.433594 5.40625L18.949219 3.210938L20.210938 6.464844zM17.183594 2.378906L17.886719 1.226562L14.203125 0.257812zM18.25 1.113281L19.078125 2.921875L23.988281 2.136719z" stroke="none" fill="#F79534" fill-rule="nonzero" />
	<g transform="matrix(1.3333334 0 0 1.3333334 0 0)">
	</g>
    <path transform="matrix(1.3333334 0 0 1.3333334 0 0)"  d="M17.230469 19.394531L6.992188 5.539062L20.339844 6.667969L17.230469 19.394531zM14.824219 2.066406L8.511719 3.558594L6.992188 5.257812zM10.90625 0.9375L9.328125 1.988281L14.566406 1.910156zM13.664062 0.117188L11.164062 0.816406L16.867188 2.335938zM16.519531 0.0234375L13.828125 0.0234375L17.992188 1zM18.074219 1.316406L17.429688 2.476562L18.714844 2.851562z" stroke="none" fill="#F0513A" fill-rule="nonzero" />
</g>
</svg>