<?xml version="1.0" encoding="utf-8"?>
<!-- Generator: Adobe Illustrator 19.0.0, SVG Export Plug-In . SVG Version: 6.00 Build 0)  -->
<svg version="1.1" id="Layer_1" xmlns="http://www.w3.org/2000/svg" xmlns:xlink="http://www.w3.org/1999/xlink" x="0px" y="0px"
	 width="24px" height="24px" viewBox="0 0 24 24" style="enable-background:new 0 0 24 24;" xml:space="preserve">
<style type="text/css">
	.st0{fill:url(#XMLID_6_);}
	.st1{fill:url(#XMLID_8_);}
</style>
<radialGradient id="XMLID_6_" cx="10.2804" cy="-107.8963" r="13.7888" gradientTransform="matrix(1 0 0 -1 2.5 -96)" gradientUnits="userSpaceOnUse">
	<stop  offset="0" style="stop-color:#52A346"/>
	<stop  offset="0.502" style="stop-color:#83B040"/>
	<stop  offset="0.7059" style="stop-color:#2FA64B"/>
	<stop  offset="0.9294" style="stop-color:#274123"/>
	<stop  offset="0.9333" style="stop-color:#274123"/>
</radialGradient>
<path id="XMLID_7_" class="st0" d="M19.3,2.1l1,0.9l-13,7.5L1,6.9l0.6-1.2L7.3,9L19.3,2.1z M16.7,0.6l1.4,0.7L7.3,7.5l-5-2.9l0.9-1
	L7.3,6L16.7,0.6z M21.2,4L22,5L7.3,13.5L0.2,9.4l0.3-1.3L7.3,12L21.2,4z"/>
<radialGradient id="XMLID_8_" cx="10.2805" cy="-107.8957" r="13.789" gradientTransform="matrix(1 0 0 -1 2.5 -96)" gradientUnits="userSpaceOnUse">
	<stop  offset="0" style="stop-color:#52A346"/>
	<stop  offset="0.502" style="stop-color:#83B040"/>
	<stop  offset="0.7059" style="stop-color:#2C9947"/>
	<stop  offset="0.9294" style="stop-color:#274123"/>
	<stop  offset="0.9333" style="stop-color:#274123"/>
</radialGradient>
<path id="XMLID_1_" class="st1" d="M23.4,7.8C23.8,9,24,10.3,24,11.6s-0.2,2.6-0.6,3.9l-0.3,0.8c-0.6,1.4-1.5,2.7-2.6,3.8
	c-1.1,1.1-2.4,1.9-3.8,2.5c-1.5,0.6-3.1,1-4.7,1c-1.6,0-3.2-0.3-4.7-1c-1.4-0.6-2.7-1.4-3.8-2.5c-1.1-1.1-2-2.4-2.6-3.8
	C0.3,14.8,0,13.2,0,11.6v-0.8L7.3,15l15.4-8.8L23.4,7.8z"/>
</svg>
