<?xml version="1.0" standalone="no"?>
<!DOCTYPE svg PUBLIC "-//W3C//DTD SVG 1.0//EN" "http://www.w3.org/TR/2001/REC-SVG-20010904/DTD/svg10.dtd">
<svg xmlns="http://www.w3.org/2000/svg" xmlns:xlink="http://www.w3.org/1999/xlink" id="body_1" width="24" height="24">

<defs>
    <linearGradient transform="matrix(1 0 0 1 0 0)"  id="1" x1="360.8791" y1="351.4553" x2="141.213" y2="-69.2936">
        <stop stop-color="#00FFA3" offset="0%"/>
        <stop stop-color="#DC1FFF" offset="100%"/>
    </linearGradient>
    <linearGradient transform="matrix(1 0 0 1 0 0)"  id="239" x1="264.8291" y1="401.6014" x2="45.163" y2="-19.1475">
        <stop stop-color="#00FFA3" offset="0%"/>
        <stop stop-color="#DC1FFF" offset="100%"/>
    </linearGradient>
    <linearGradient transform="matrix(1 0 0 1 0 0)"  id="478" x1="312.5484" y1="376.688" x2="92.8822" y2="-44.061">
        <stop stop-color="#00FFA3" offset="0%"/>
        <stop stop-color="#DC1FFF" offset="100%"/>
    </linearGradient>
</defs>

<g transform="matrix(0.75 0 0 0.75 0 0)">
	<g transform="matrix(1.3333334 0 0 1.3333334 0 0)">
	</g>
    <path transform="matrix(1.3333334 0 0 1.3333334 0 0)"  d="M3.898438 18.316406C 4.042969 18.132812 4.242188 18.023438 4.453125 18.023438L4.453125 18.023438L23.609375 18.023438C 23.957031 18.023438 24.132812 18.5625 23.886719 18.878906L23.886719 18.878906L20.101562 23.703125C 19.957031 23.890625 19.757812 23.996094 19.546875 23.996094L19.546875 23.996094L0.390625 23.996094C 0.0429688 23.996094 -0.132812 23.457031 0.113281 23.144531L0.113281 23.144531L3.898438 18.316406z" stroke="none" fill="url(#1)" />
	<g transform="matrix(1.3333334 0 0 1.3333334 0 0)">
	</g>
    <path transform="matrix(1.3333334 0 0 1.3333334 0 0)"  d="M3.898438 0.296875C 4.050781 0.109375 4.25 0.00390625 4.453125 0.00390625L4.453125 0.00390625L23.609375 0.00390625C 23.957031 0.00390625 24.132812 0.542969 23.886719 0.855469L23.886719 0.855469L20.101562 5.683594C 19.957031 5.867188 19.757812 5.976562 19.546875 5.976562L19.546875 5.976562L0.390625 5.976562C 0.0429688 5.976562 -0.132812 5.4375 0.113281 5.121094L0.113281 5.121094L3.898438 0.296875z" stroke="none" fill="url(#239)" />
	<g transform="matrix(1.3333334 0 0 1.3333334 0 0)">
	</g>
    <path transform="matrix(1.3333334 0 0 1.3333334 0 0)"  d="M20.101562 9.246094C 19.957031 9.0625 19.757812 8.957031 19.546875 8.957031L19.546875 8.957031L0.390625 8.957031C 0.0429688 8.957031 -0.132812 9.496094 0.113281 9.808594L0.113281 9.808594L3.898438 14.636719C 4.042969 14.820312 4.242188 14.929688 4.453125 14.929688L4.453125 14.929688L23.609375 14.929688C 23.957031 14.929688 24.132812 14.390625 23.886719 14.074219L23.886719 14.074219L20.101562 9.246094z" stroke="none" fill="url(#478)" />
</g>
</svg>