<?xml version="1.0" encoding="utf-8"?>
<!-- Generator: Adobe Illustrator 19.0.0, SVG Export Plug-In . SVG Version: 6.00 Build 0)  -->
<svg version="1.1" id="Layer_1" xmlns="http://www.w3.org/2000/svg" xmlns:xlink="http://www.w3.org/1999/xlink" x="0px" y="0px"
	 width="24px" height="24px" viewBox="0 0 24 24" style="enable-background:new 0 0 24 24;" xml:space="preserve">
<style type="text/css">
	.st0{fill-rule:evenodd;clip-rule:evenodd;fill:none;}
	.st1{fill-rule:evenodd;clip-rule:evenodd;fill:#EC8223;}
	.st2{fill-rule:evenodd;clip-rule:evenodd;fill:#ECBB1E;}
	.st3{fill-rule:evenodd;clip-rule:evenodd;fill:#5C6A72;}
	.st4{fill:#DCF1F9;stroke:#5C6A72;stroke-width:0.5;stroke-linecap:round;stroke-linejoin:round;stroke-miterlimit:10;}
	.st5{fill:#FFFFFF;stroke:#5C6A72;stroke-width:0.5;stroke-miterlimit:10;}
</style>
<path id="XMLID_6_" class="st0" d="M18.2,3.8L18.2,3.8L18.2,3.8c-0.3-0.2-5,0.1-6.8,3.1c-1.8,3-3.3,5.8-3.7,6.4
	c-0.3,0.6-0.1,0.9,0.4,1.3c0.3,0.2,1,0.7,1.7,1.2c0.7,0.5,1.4,1,1.7,1.2c0.6,0.4,0.9,0.5,1.3,0c0.4-0.5,2.6-2.9,4.7-5.6
	C19.8,8.6,18.5,4,18.2,3.8"/>
<g id="XMLID_3_">
	<g id="XMLID_4_">
		<path id="XMLID_17_" class="st1" d="M10.9,19.9c0.9-1.4,0.6-3.2-0.7-4.2c-1.3-1-3.2-0.6-4.2,0.7c0,0,0,0.1-0.1,0.1
			c-1.7,2.4-1.9,5.1-0.6,6.1C6.7,23.6,9.2,22.4,10.9,19.9C10.9,20,10.9,19.9,10.9,19.9"/>
		<path id="XMLID_15_" class="st2" d="M10.6,18.9c0.7-0.9,0.4-2.2-0.5-2.9c-0.9-0.7-2.2-0.4-2.9,0.5c0,0,0,0,0,0.1
			c-1.2,1.7-1.4,3.5-0.4,4.2C7.7,21.4,9.4,20.6,10.6,18.9C10.6,19,10.6,18.9,10.6,18.9"/>
	</g>
	<path id="XMLID_12_" class="st3" d="M11.1,10.4C10.2,9.8,5.6,7.2,1,13.1c-0.1,0.2-0.2,0.4,0.2,0.3c1.1-0.3,3.5-0.7,6.4,1.2
		C11.4,17.3,11.1,10.4,11.1,10.4"/>
	<path id="XMLID_8_" class="st3" d="M15.1,13.3c0.9,0.6,4.8,4,0.9,10.2c-0.1,0.2-0.4,0.3-0.4,0c0-1.1-0.5-3.5-3.3-5.5
		C8.5,15.3,15.1,13.3,15.1,13.3"/>
	<path id="XMLID_2_" class="st4" d="M20.9,1L20.9,1L20.9,1c-0.4-0.3-6.9,0.2-9.4,4.2c-2.4,4-4.6,8-5,8.7c-0.4,0.8-0.2,1.2,0.6,1.7
		c0.4,0.3,1.4,1,2.3,1.7c1,0.7,2,1.4,2.3,1.7c0.8,0.6,1.2,0.6,1.8,0c0.6-0.7,3.5-4,6.5-7.7C23.1,7.5,21.3,1.2,20.9,1"/>
	<path id="XMLID_1_" class="st5" d="M13.3,6.2C14.1,5,15.8,4.7,17,5.6c1.2,0.8,1.5,2.5,0.6,3.7c-0.8,1.2-2.5,1.5-3.7,0.6
		C12.7,9,12.4,7.4,13.3,6.2"/>
</g>
</svg>
