<svg width="24" height="24" viewBox="0 0 24 24" fill="none" xmlns="http://www.w3.org/2000/svg">
<path d="M24 12C24 18.6 18.6 24 12 24C5.4 24 0 18.6 0 12C0 5.4 5.4 0 12 0C18.6 0 24 5.4 24 12Z" fill="#FEE602"/>
<path d="M20.4 11.5L20.6 10.8H19.9C19.6 10.8 19.2 10.7 19 10.5H19.1C19.5 10.5 20 10.2 20.1 9.8L20.4 9.1C20.1 9.1 19.9 9.1 19.6 9.1C19.6 9.1 19.3 9.1 19 8.7C18.8 8.5 18.5 8.3 18.2 8.3C18.1 8.3 18 8.3 17.8 8.4C17.8 8.3 17.8 8.3 17.8 8.2C17.9 7.5 17.5 7.1 17.5 7.1L17 6.5L16.7 7.3C16.6 7.4 16.6 7.5 16.5 7.6C16.4 7.3 16.2 7 16 6.8C15.7 6.4 15.2 6.3 14.7 6.3C14.6 6.3 14.5 6.3 14.4 6.3L13.7 6.4C13.9 6.2 14 6 14.1 5.8L14.5 5.2L13.6 5.3L13.3 4.7L12.7 5L12.2 4.5L11.6 5L11 4.7L10.7 5.3L9.9 5.2L10.3 5.8C10.4 6 10.5 6.2 10.6 6.4L9.9 6.3C9.8 6.3 9.7 6.3 9.6 6.3C9.1 6.3 8.6 6.5 8.3 6.8C8.1 7 7.9 7.3 7.9 7.6C7.8 7.5 7.7 7.4 7.6 7.3L7.3 6.5L6.7 7.2C6.7 7.2 6.3 7.7 6.4 8.3C6.4 8.4 6.4 8.4 6.4 8.5C6.3 8.5 6.2 8.4 6 8.4C5.7 8.4 5.4 8.5 5.2 8.8C4.9 9.1 4.7 9.1 4.7 9.1C4.4 9.1 4.2 9.2 3.9 9.1L4.2 9.8C4.4 10.2 4.8 10.5 5.3 10.5H5.4C5.1 10.7 4.8 10.8 4.5 10.8H3.8L4 11.5C4.1 11.9 4.5 12.5 5.2 12.5C5.1 12.8 4.9 13.2 4.6 13.4L4 13.6L4.3 14.1C4.5 14.5 5 14.7 5.4 14.7C5.5 14.7 5.6 14.7 5.8 14.7C5.8 14.8 5.9 15 5.9 15.1C6.1 15.6 5.9 16 5.9 16L5.6 16.6L6.2 16.8C6.3 16.8 6.5 16.9 6.6 16.9C6.7 16.9 6.8 16.9 6.9 16.9C7 16.9 7 16.9 7.1 16.8C7.2 16.9 7.3 17.1 7.4 17.2C7.8 17.6 8.3 17.8 9 17.8H9.5L8.5 18.2L9.3 18.6C9.6 18.8 9.9 18.9 10.3 19L10.2 19.3L10.5 19.4C10.5 19.4 11 19.6 11.9 19.7C11.9 19.7 12.1 19.7 12.2 19.7C12.3 19.7 12.5 19.7 12.5 19.7C13.4 19.6 13.9 19.4 13.9 19.4L14.2 19.3L14 18.9C14.3 18.8 14.7 18.6 15 18.5L15.8 18.1L14.8 17.7H15.3C16 17.7 16.6 17.5 16.9 17.1C17 17 17.1 16.9 17.2 16.7C17.3 16.7 17.3 16.7 17.4 16.8C17.5 16.8 17.6 16.8 17.7 16.8C17.8 16.8 18 16.8 18.1 16.7L18.7 16.5L18.4 16C18.4 16 18.2 15.6 18.4 15.1C18.4 15 18.5 14.8 18.5 14.7C18.6 14.7 18.7 14.7 18.9 14.7C19.4 14.7 19.8 14.5 20 14.1L20.3 13.6L19.7 13.4C19.3 13.2 19.1 12.9 19.1 12.5C19.9 12.5 20.3 11.9 20.4 11.5ZM14.7 13.8H9.7V15.7C9.7 16.5 10.3 17 11.1 17C11.8 17 12 17 12.2 17.3C12.4 17.1 12.5 17.1 12.8 17L13 16.5L12.7 16.2C12.6 16.2 12.5 16.2 12.4 16.2C12.2 16.2 12.1 16.2 11.9 16.1C11.9 16.1 11.9 16.1 11.8 16.1V16.2L11.7 16.3H11.6L11.1 16.2H11L11.1 16.3V16.4C11.1 16.5 10.9 16.6 10.9 16.7L10.8 16.8L10.7 16.7L10.6 16.6C10.5 16.5 10.5 16.4 10.5 16.2L10.4 16.3L10.3 16.2V16.1C10.2 15.9 10.3 15.7 10.5 15.5L10.9 15.3L11.3 15.4V15.2L11 15.1L10.8 15C10.8 15 10.8 15 10.8 14.9V14.8L11 14.5L10.5 13.9L11.3 14.2L11.4 14.1L11.5 14L11.6 14.1L11.7 14.2C11.9 14.3 12.3 14.5 12.3 14.9L12.1 15C12.1 15 12.1 15 12.2 15L12.8 15.1C12.8 15.1 12.8 15.1 12.9 15.1C13 15.1 13.1 15 13.2 15C13.3 15 13.4 15 13.5 15.1H13.6C13.9 15.1 14 15.3 14.2 15.5C14.2 15.5 14.2 15.6 14.3 15.6C14.4 15.7 14.5 16 14.5 16L14.6 16.1L14.5 16.2C14.4 16.3 14.3 16.3 14.2 16.3H14.1H14V16.4L13.9 16.9C14.5 16.8 14.8 16.3 14.8 15.7V13.8H14.7ZM9.6 13.6H13.5C13.3 13.4 13.3 13.2 13.4 13C13.3 13 13.3 12.9 13.3 12.9C13.1 13 12.7 13.3 12.6 13.4L11 13.2H10.9C10.9 13.3 10.8 13.3 10.8 13.3C10.7 13.3 10.7 13.2 10.7 13.1C10.5 13 10.4 12.7 10.5 12.5C10.5 12.5 10.5 12.5 10.6 12.5H10.5C10.5 12.5 10.4 12.5 10.4 12.4C10.4 12.4 10.4 12.4 10.5 12.4H10.8V11.5L11.2 11.1L11.4 11.6L11.1 12.5H11.3C11.3 12.5 11.4 12.5 11.4 12.6C11.4 12.6 11.4 12.7 11.3 12.7H11.1L11.2 12.8H12.4C12.5 12.8 12.6 12.6 12.7 12.5C12.5 12.4 12.3 12.2 12.3 12C12.2 11.9 12 11.8 12 11.7C11.9 11.6 11.9 11.4 12 11.3C11.8 11.2 11.6 11.1 11.5 11H9.5C9.6 11.2 9.6 11.4 9.6 11.6V13.6Z" fill="white"/>
<path d="M11.2 14.6C11.2 14.6 11.2 14.7 11.2 14.6C11.2 14.7 11.2 14.7 11.2 14.7C11.3 14.7 11.3 14.7 11.2 14.6C11.3 14.6 11.3 14.6 11.2 14.6C11.3 14.6 11.3 14.6 11.2 14.6ZM14.6 18L14.3 17.9L14.4 17.6L14.5 17.3C14.1 17.5 13.7 17.7 13.3 17.8C13.1 17.9 12.9 17.9 12.9 17.9V18.1C12.6 18.1 12.4 18.2 12.1 18.2C11.8 18.2 11.6 18.2 11.3 18.1V17.9C11.3 17.9 11.1 17.9 10.9 17.8C10.5 17.7 10.1 17.5 9.7 17.3L9.8 17.6L9.9 17.9L9.6 18L9.3 18.1C9.7 18.3 10.2 18.5 10.6 18.7V19C10.6 19 11.2 19.3 12.2 19.3C13.2 19.3 13.8 19 13.8 19L13.7 18.7C14.2 18.6 14.7 18.3 15 18.1L14.6 18ZM9.7 18.1L10.2 17.9L10 17.5C10.2 17.6 10.7 17.8 10.9 17.9L10.7 18.5C10.4 18.4 10 18.3 9.7 18.1ZM12.1 19.1C11.5 19.1 10.9 19 10.7 18.9L11 18.1C11.4 18.2 11.7 18.2 12.1 18.2C12.5 18.2 12.8 18.1 13.2 18.1L13.5 18.9C13.3 19 12.7 19.1 12.1 19.1ZM13.6 18.5L13.4 17.9C13.7 17.8 14.1 17.6 14.3 17.5L14.1 18L14.6 18.2C14.3 18.3 13.9 18.4 13.6 18.5ZM12.1 6.09999C12.7 6.09999 13.2 6.29999 13.4 6.49999C13.5 6.19999 13.6 5.89999 13.7 5.59999L13.2 5.69999L13 5.19999L12.5 5.39999L12 4.89999L11.5 5.39999L11 5.19999V5.69999L10.5 5.59999C10.7 5.89999 10.8 6.19999 10.8 6.49999C11.1 6.29999 11.6 6.09999 12.1 6.09999ZM10.9 5.79999H11L11.1 5.69999L11.3 5.29999L11.6 5.49999L11.7 5.59999L12.1 5.19999L12.5 5.59999L12.6 5.49999L13 5.39999L13.2 5.79999L13.3 5.89999H13.4H13.5C13.4 5.99999 13.4 6.09999 13.4 6.29999C12.6 5.89999 11.8 5.89999 11 6.29999C11 6.19999 10.9 6.09999 10.9 5.89999V5.79999ZM15.4 13L15.2 13.1L15.4 13.3C15.6 13.4 15.8 13.5 16 13.6C16.1 13.6 16.1 13.6 16.2 13.6C16.4 13.6 16.6 13.6 16.8 13.5C16.8 13.6 16.7 13.7 16.6 13.7C16.3 14 16 14.2 15.5 14.2H15.3V14.4C15.3 14.4 15.3 14.8 15.6 15.1C15.7 15.1 15.7 15.2 15.8 15.2C15.6 15.4 15.4 15.8 15.3 16.3C15.3 16.8 15.1 17 15.1 17L14.9 17.3H15.3C15.9 17.3 16.4 17.1 16.7 16.8C16.9 16.6 17 16.4 17.1 16.2C17.2 16.3 17.4 16.4 17.5 16.4C17.6 16.4 17.6 16.4 17.7 16.4C17.8 16.4 17.9 16.4 18 16.4L18.2 16.3L18.1 16.1C18.1 16.1 17.9 15.6 18.1 15C18.2 14.8 18.2 14.5 18.3 14.3C18.5 14.4 18.7 14.4 18.9 14.4C19.2 14.4 19.6 14.2 19.8 13.9L19.9 13.7L19.7 13.6C19 13.3 18.8 12.5 18.8 12.1C18.9 12.1 18.9 12.1 19 12.1C19.8 12.1 20 11.3 20 11.3L20.1 11H19.8C19.2 11 18.6 10.7 18.3 10.2L18.2 10.1C17.8 9.59999 17.4 9.09999 16.8 8.89999C16.8 8.89999 16.9 8.89999 16.9 8.79999C17.2 8.59999 17.5 8.29999 17.5 7.99999C17.6 7.49999 17.3 7.09999 17.2 7.09999L17 6.79999V7.39999C17 7.39999 16.8 7.89999 16.3 7.89999H16.2C16.2 7.59999 16.1 7.19999 15.9 6.99999C15.6 6.69999 15.2 6.59999 14.8 6.59999C14.7 6.59999 14.7 6.59999 14.6 6.59999L14.3 6.69999L14.5 6.99999C14.7 7.19999 14.8 7.59999 14.6 7.79999C14.5 7.89999 14.4 7.89999 14.3 7.99999C14.1 8.09999 13.8 8.19999 13.8 8.59999C13.8 8.79999 14 9.09999 14.3 9.29999C15.2 9.89999 15.8 10.5 16.1 11.2C16.4 12.1 15.7 12.8 15.4 13ZM19.6 13.9C19.5 14.1 19.2 14.3 18.9 14.3C18.3 14.3 18.1 13.9 18.1 13.9C18.1 13.9 18.1 14.3 17.9 15C17.7 15.7 17.9 16.3 17.9 16.3C17.8 16.3 17.7 16.3 17.6 16.3C17.5 16.3 17.5 16.3 17.4 16.3C17.1 16.2 16.9 16 16.8 15.8C16.8 15.8 16.8 17.3 15.2 17.3C15.2 17.3 15.4 17.1 15.4 16.5C15.5 15.4 16.2 15.3 16.2 15.3C16.2 15.3 15.8 15.3 15.6 15.1C15.3 14.9 15.4 14.6 15.4 14.6C16 14.6 16.4 14.4 16.7 14C16.9 13.8 17 13.5 17.1 13.2C17.1 13.2 16.8 13.5 16.2 13.5C16.1 13.5 16.1 13.5 16 13.5C15.8 13.5 15.6 13.4 15.5 13.3C16.1 12.9 16.6 12.2 16.2 11.1C15.9 10.2 15.1 9.59999 14.3 9.09999C14 8.89999 13.9 8.79999 13.9 8.59999C13.9 8.19999 14.4 8.19999 14.6 7.99999C14.8 7.69999 14.7 7.29999 14.5 6.99999C14.6 6.99999 14.6 6.99999 14.7 6.99999C15 6.99999 15.4 7.09999 15.6 7.39999C16 7.79999 15.8 8.29999 15.8 8.29999H15.9C16 8.29999 16 8.29999 16.1 8.29999C16.7 8.29999 17 7.69999 17 7.69999C17 7.69999 17.7 8.49999 16.7 9.09999C16.5 9.19999 16.5 9.29999 16.5 9.39999V9.49999H16.6C17.3 9.69999 17.6 10.2 18.1 10.7C18.5 11.2 19.1 11.5 19.8 11.6C19.8 11.6 19.6 12.3 19 12.3C18.7 12.3 18.6 12.2 18.6 12.2C18.6 12.2 18.5 13.4 19.6 13.9ZM18.8 10.2C18.9 10.2 19 10.2 19 10.2C19.3 10.2 19.6 9.99999 19.8 9.69999L19.9 9.39999H19.6C19.6 9.39999 19.2 9.39999 18.8 8.89999C18.6 8.69999 18.4 8.59999 18.2 8.59999C18 8.59999 17.8 8.69999 17.7 8.79999L17.4 8.99999L17.7 9.19999C18 9.29999 18.1 9.59999 18.3 9.69999L18.8 10.2ZM18.2 8.89999C18.4 8.89999 18.5 8.99999 18.7 9.09999C19.2 9.59999 19.6 9.59999 19.6 9.59999C19.5 9.89999 19.3 9.99999 19 9.99999C18.9 9.99999 18.9 9.99999 18.8 9.99999C18.5 9.89999 18.3 9.39999 17.8 9.09999C17.9 8.99999 18.1 8.89999 18.2 8.89999ZM17.8 11.9C17.6 10.5 16.6 9.49999 15.5 8.89999C15.4 8.79999 15.3 8.79999 15.2 8.79999C15.5 8.89999 16.1 8.89999 16.5 8.49999C16.5 8.49999 15.9 8.99999 14.5 8.49999C14.9 8.69999 15.6 9.09999 16.2 9.59999C17.8 11 16.7 12.4 16.7 12.4C17.3 11.8 17.3 11.1 17.1 10.6C17.4 11.2 17.6 11.8 17.6 12.5C17.6 13.6 17 14.5 16.3 15.3C16.1 15.5 16 15.8 15.9 16.1C16 15.8 16.2 15.5 16.4 15.3C17.1 14.5 17.7 13.7 17.7 12.5C17.8 12.7 18.1 13.3 18.5 13.5C18.7 13.6 18.1 13.3 17.8 11.9ZM9.2 17C9.2 17 9.1 16.8 9 16.3C9 15.7 8.7 15.4 8.5 15.2C8.6 15.2 8.6 15.1 8.7 15.1C9.1 14.8 9 14.4 9 14.4V14.2H8.8C8.3 14.2 8 14 7.7 13.7C7.6 13.6 7.6 13.6 7.5 13.5C7.7 13.6 7.9 13.6 8.1 13.6C8.2 13.6 8.2 13.6 8.3 13.6C8.5 13.6 8.7 13.5 8.9 13.3L9.1 13.1L8.9 13C8.4 12.7 7.9 12.1 8.3 11C8.6 10.3 9.1 9.69999 10.1 9.09999C10.4 8.89999 10.6 8.69999 10.6 8.39999C10.6 7.99999 10.3 7.89999 10.1 7.79999C10 7.79999 9.9 7.69999 9.8 7.59999C9.6 7.39999 9.8 6.99999 9.9 6.79999L10.1 6.49999L9.8 6.59999C9.7 6.59999 9.7 6.59999 9.6 6.59999C9.2 6.59999 8.8 6.69999 8.5 6.99999C8.3 7.29999 8.1 7.59999 8.2 7.89999H8.1C7.6 7.89999 7.4 7.39999 7.4 7.39999L7.2 7.09999L7 7.39999C7 7.39999 6.7 7.79999 6.7 8.29999C6.8 8.59999 7 8.89999 7.3 9.09999C7.3 9.09999 7.4 9.09999 7.4 9.19999C6.7 9.39999 6.4 9.89999 6 10.4C5.6 10.9 5.1 11.2 4.5 11.2H4.2L4.3 11.5C4.3 11.5 4.6 12.3 5.3 12.3C5.4 12.3 5.4 12.3 5.5 12.3C5.5 12.7 5.3 13.5 4.6 13.8L4.4 13.9L4.5 14C4.7 14.3 5 14.5 5.4 14.5C5.6 14.5 5.8 14.5 6 14.4C6 14.6 6.1 14.9 6.2 15.1C6.4 15.7 6.2 16.2 6.2 16.2L6 16.4L6.2 16.5C6.3 16.5 6.4 16.5 6.5 16.5C6.6 16.5 6.6 16.5 6.7 16.5C6.9 16.5 7 16.4 7.1 16.3C7.2 16.5 7.3 16.7 7.5 16.9C8 17.2 8.4 17.3 9 17.3H9.4L9.2 17ZM9 17.1C7.3 17.1 7.4 15.6 7.4 15.6C7.3 15.9 7.1 16.1 6.8 16.1C6.7 16.1 6.7 16.1 6.6 16.1C6.5 16.1 6.4 16.1 6.3 16.1C6.3 16.1 6.5 15.6 6.3 14.8C6.1 14.2 6.1 13.7 6.1 13.7C6.1 13.7 5.9 14 5.3 14C5 14 4.8 13.9 4.6 13.6C5.7 13.1 5.6 11.6 5.6 11.6C5.6 11.6 5.6 12 5.3 12C4.7 12 4.5 11.3 4.5 11.3C5.2 11.3 5.8 11 6.2 10.4C6.6 9.89999 7 9.39999 7.7 9.19999H7.8V9.09999C7.8 8.99999 7.7 8.89999 7.6 8.79999C6.6 8.19999 7.3 7.39999 7.3 7.39999C7.3 7.39999 7.4 8.09999 8 8.09999C8.1 8.09999 8.1 8.09999 8.2 8.09999H8.3C8.3 8.09999 8.1 7.59999 8.5 7.19999C8.7 6.89999 9.1 6.79999 9.4 6.79999C9.5 6.79999 9.5 6.79999 9.6 6.79999C9.4 7.09999 9.2 7.49999 9.5 7.79999C9.7 7.99999 10.2 8.09999 10.2 8.39999C10.2 8.59999 10.1 8.69999 9.8 8.89999C9 9.39999 8.3 9.99999 7.9 10.9C7.5 12 8 12.7 8.6 13.1C8.5 13.2 8.3 13.3 8.1 13.3C8 13.3 8 13.3 7.9 13.3C7.3 13.3 7 13 7 13C7.1 13.3 7.2 13.6 7.4 13.8C7.7 14.1 8.1 14.3 8.7 14.4C8.7 14.4 8.7 14.7 8.5 14.9C8.4 15.1 8 15.1 8 15.1C8 15.1 8.7 15.2 8.8 16.3C8.9 16.9 9 17.1 9 17.1ZM5.3 10.2C5.4 10.2 5.5 10.2 5.5 10.2C5.7 10.1 5.8 9.89999 6 9.79999L5.3 10.2ZM6.6 9.19999L6.9 8.99999L6.6 8.89999C6.5 8.79999 6.3 8.69999 6.1 8.69999C5.9 8.69999 5.6 8.79999 5.5 8.99999C5.1 9.39999 4.7 9.49999 4.7 9.49999H4.4L4.5 9.79999C4.6 10.1 4.9 10.3 5.3 10.3L6.6 9.19999ZM5.6 9.09999C5.8 8.99999 5.9 8.89999 6.1 8.89999C6.2 8.89999 6.4 8.89999 6.5 8.99999C5.9 9.39999 5.8 9.89999 5.4 9.99999C5.3 9.99999 5.3 9.99999 5.2 9.99999C5 9.99999 4.8 9.89999 4.7 9.69999C4.7 9.69999 5.1 9.59999 5.6 9.09999ZM6.6 12.6C6.6 11.9 6.7 11.3 7.1 10.7C6.9 11.2 7 11.9 7.5 12.5C7.5 12.5 6.3 11.1 8 9.69999C8.6 9.19999 9.4 8.79999 9.7 8.59999C8.4 8.99999 7.7 8.59999 7.7 8.59999C8.1 8.99999 8.7 8.99999 9 8.89999C8.9 8.89999 8.8 8.99999 8.7 8.99999C7.6 9.59999 6.6 10.6 6.4 12C6.1 13.4 5.6 13.7 5.6 13.7C6.1 13.5 6.4 12.9 6.4 12.7C6.5 13.9 7.1 14.7 7.7 15.5C7.9 15.7 8.1 16 8.2 16.3C8.1 16 8 15.7 7.8 15.5C7.2 14.6 6.6 13.7 6.6 12.6ZM11.8 9.79999V10.1C11.9 9.89999 12 9.99999 12 9.99999V10.4C12 10.4 12 10.6 11.9 10.7H12.3C12.2 10.6 12.2 10.4 12.2 10.4V9.99999C12.2 9.99999 12.4 9.99999 12.5 10.1V9.79999H11.8ZM11.6 8.19999C11.7 8.29999 11.7 8.29999 11.8 8.29999V7.99999L11.3 7.79999C11.4 7.89999 11.4 7.99999 11.6 8.19999ZM12.7 8.19999C12.9 7.99999 12.9 7.89999 12.9 7.89999L12.4 7.99999V8.29999C12.6 8.29999 12.6 8.19999 12.7 8.19999ZM13.5 7.09999C13.5 6.69999 12.8 6.39999 12.1 6.39999C11.4 6.39999 10.7 6.79999 10.7 7.09999V7.19999L11 8.89999L10.8 8.99999L10 9.49999L9.8 9.59999C9.5 9.79999 9.5 10.1 9.6 10.2C9.6 9.89999 9.9 9.69999 10.2 9.69999C10.5 9.69999 10.6 9.79999 10.8 9.99999C10.8 10.1 10.9 10.1 10.9 10.2C10.9 10.3 11 10.3 11 10.4H9.1C9.2 10.7 9.4 11 9.4 11.3V15.6C9.4 16.6 10.2 17.1 11.1 17.1C11.8 17.1 11.9 17.1 12.2 17.4C12.6 17 12.7 17.1 13.3 17.1C14.2 17.1 15 16.6 15 15.6V11.3C15 11 15.1 10.7 15.3 10.4H13.4C13.4 10.3 13.5 10.3 13.5 10.2C13.5 10.1 13.6 10.1 13.6 9.99999C13.8 9.79999 13.9 9.69999 14.2 9.69999C14.5 9.69999 14.7 9.89999 14.8 10.2C15 10.1 14.9 9.79999 14.6 9.59999C14.5 9.49999 14.4 9.49999 14.4 9.49999L13.5 8.99999L13.2 8.79999L13.5 7.09999ZM11 7.29999L12 7.59999V9.19999L11.2 8.79999L11 7.29999ZM11.3 10.7C11.4 10.8 11.6 11 11.8 11C11.8 11.1 11.8 11.3 11.8 11.4C11.9 11.5 12 11.7 12.1 11.7C12.1 11.9 12.3 12.1 12.5 12.2C12.4 12.3 12.3 12.4 12.2 12.5H11L10.9 12.4H11.1C11.1 12.4 11.2 12.4 11.2 12.3C11.2 12.3 11.2 12.2 11.1 12.2H10.9L11.2 11.3L11 10.8L10.6 11.2V12.1H10.3C10.3 12.1 10.3 12.1 10.2 12.1C10.2 12.1 10.2 12.2 10.3 12.2H10.4H10.3C10.2 12.5 10.4 12.7 10.5 12.8C10.5 12.9 10.5 13 10.6 13C10.7 13 10.7 13 10.7 12.9C10.8 12.9 10.8 12.9 10.8 12.9L12.3 13.2C12.4 13.1 12.9 12.8 13 12.7L13.1 12.8C13 13 13.1 13.3 13.2 13.4H9.6V11.1C9.6 10.9 9.5 10.7 9.5 10.5H11.3V10.7ZM13.1 12.8C12.9 12.9 12.5 13.2 12.4 13.3L11.1 13C11.1 12.9 11.1 12.8 11.1 12.7H12.3C12.3 12.7 12.7 12.3 12.9 12.1C13 12.2 13 12.2 13.1 12.3C13 12.4 13.1 12.6 13.1 12.8ZM10.8 12.5C10.8 12.6 10.9 12.6 10.9 12.6C10.9 12.7 10.9 12.8 10.9 12.9C10.9 12.9 10.9 12.9 10.9 13C10.8 13 10.7 13 10.6 13C10.5 13 10.3 12.8 10.4 12.5C10.5 12.4 10.6 12.4 10.7 12.4L10.8 12.5ZM10.7 12.3V11.4L10.9 11.2L11 11.5L10.8 12.4L10.7 12.3ZM13.1 16.9C13 16.9 13 16.9 12.9 16.9L13.1 16.4C13.1 16.3 13 16.2 12.9 16.2C13 16.3 13.2 16.3 13.3 16.4L13.1 16.9ZM13.7 16.3L13.6 16.9C13.5 16.9 13.5 16.9 13.4 16.9L13.5 16.4C13.5 16.2 13.1 16.2 12.9 15.9C12.8 16 12.6 16.1 12.4 16.1C12.2 16.1 12.1 16.1 11.9 16H11.8C11.7 16 11.7 16 11.6 16.1V16.2L11 15.9L10.9 16.1V16.2C10.9 16.3 10.7 16.4 10.7 16.4L10.6 16.3C10.5 16.2 10.5 16.1 10.6 15.9L10.8 15.5L11.3 15.6L11.2 15.4C11.1 15.2 11.3 14.9 11.3 14.7C11.3 14.8 11.2 14.8 11.2 14.8C11.1 14.8 11.1 14.8 11.1 14.8L11 15L10.9 14.9V14.8L11.1 14.5L10.8 14.2L11.2 14.4L11.3 14.3V14.4C11.4 14.4 11.8 14.6 11.8 15.1C11.8 15.1 11.9 15.2 12 15.2L12.6 15.3C12.7 15.3 12.8 15.2 12.9 15.2C13 15.2 13.1 15.2 13.2 15.3H13.3C13.6 15.3 13.7 15.5 13.8 15.7C13.9 15.8 14 16.1 14 16.1C14 16.2 13.9 16.2 13.8 16.2H13.7C13.4 16.1 13.4 15.6 13.2 15.5H13.1C13.2 15.7 13.1 15.8 13.2 15.9C13.3 16 13.3 16.1 13.4 16.1C13.7 16.2 13.7 16.3 13.7 16.3ZM10.6 15.8C10.6 15.9 10.4 16 10.4 16V15.9C10.3 15.8 10.4 15.6 10.5 15.5L10.8 15.3L11.1 15.4C11.1 15.5 11.1 15.5 11.2 15.6L10.8 15.5L10.6 15.6C10.6 15.7 10.6 15.7 10.6 15.8ZM13.7 16.9L13.8 16.4V16.3H13.9H14C14.1 16.3 14.2 16.2 14.3 16.2L14.4 16.1L14.3 16C14.3 16 14.2 15.8 14.1 15.6C14.1 15.6 14.1 15.5 14 15.5C13.9 15.3 13.7 15.1 13.4 15.1H13.3C13.2 15.1 13.1 15 13 15C12.9 15 12.8 15 12.7 15.1C12.7 15.1 12.7 15.1 12.6 15.1L12 15C12 15 12 15 11.9 15H12C12 14.6 11.6 14.4 11.4 14.3C11.4 14.3 11.4 14.2 11.3 14.2L11.4 14L11.2 14.2L10.4 13.9L10.9 14.5L10.7 14.8C10.7 14.8 10.7 14.8 10.7 14.9V15L10.9 15.1L11.1 15V15.2L10.7 15.1L10.3 15.3C10.1 15.4 10.1 15.7 10.1 15.9V16L10.2 16.1L10.3 16C10.2 16.2 10.3 16.3 10.4 16.4L10.5 16.5L10.6 16.6L10.7 16.5C10.8 16.4 10.8 16.3 10.9 16.2V16.1L11 16.2L11.1 16.1L11.6 16.2H11.7L11.8 16.1V16C11.8 16 11.8 16 11.9 16C12.1 16 12.2 16 12.4 16.1C12.5 16.1 12.6 16.1 12.7 16.1L13 16.4L12.8 16.9C12.5 16.9 12.4 17 12.2 17.2C11.9 16.9 11.8 16.9 11.1 16.9C10.3 16.9 9.7 16.4 9.7 15.6V13.7H14.7V15.6C14.7 16.3 14.3 16.7 13.7 16.9ZM14.8 10.7C14.7 10.9 14.7 11.1 14.7 11.3V12.7C14.4 12.7 14.4 12.3 14.4 12.3V12.2H14.3C14.2 12.2 14.1 12.1 14 12.1C13.9 12 13.9 11.7 13.9 11.7C13.8 11.8 13.8 12 13.9 12.2C14 12.3 14.1 12.4 14.2 12.4C14.2 12.6 14.4 12.8 14.7 12.9V13.6H13.8C13.4 13.4 13.6 13 13.6 13V12.9H13.5C13.1 12.7 13.2 12.3 13.2 12.3V12.2H13.1C12.7 12 12.8 11.6 12.8 11.6C12.7 11.7 12.7 11.9 12.7 12C12.7 12 12.6 12.1 12.5 12.2C12.3 12.2 12.1 12 12.1 11.7V11.6C12 11.5 11.9 11.5 11.8 11.4C11.8 11.3 11.8 11.2 11.8 11.1H11.9H12H12.1C12.3 11.1 12.6 11 12.9 10.7H14.8ZM13.4 9.29999L13.7 9.49999L13.8 9.59999C13.6 9.69999 13.5 9.69999 13.3 9.89999L13.2 9.99999L13.1 10.1L13 10.2C12.8 10.6 12.4 10.9 12 10.9C11.7 10.9 11.3 10.6 11 10.2L10.9 10.1C10.9 10.1 10.9 9.99999 10.8 9.99999L10.7 9.89999C10.6 9.79999 10.4 9.69999 10.2 9.59999L10.3 9.49999L10.6 9.29999L11 9.09999L11.9 9.59999L12.8 9.09999L13.4 9.29999ZM13 8.89999L12.2 9.29999V7.69999L13.2 7.39999L13 8.89999ZM12.1 7.49999L11 6.99999C11.1 6.79999 11.5 6.59999 12.1 6.59999C12.7 6.59999 13.1 6.79999 13.2 6.99999L12.1 7.49999Z" fill="#010101"/>
</svg>
