<svg width="24" height="24" viewBox="0 0 24 24" fill="none" xmlns="http://www.w3.org/2000/svg">
<g clip-path="url(#clip0)">
<path d="M0 9.9C0 12.3 0.9 15.6 2.9 17.1C3.4 17.4 4.5 18.1 5.2 18.1C5 17 0.8 11.8 4.4 6.7C5.3 5.3 7.5 3.8 8.9 3.2C13.1 1.2 17.4 2.5 20.8 5.2C21.2 5.5 21.3 5.7 21.6 5.8C21.3 4.8 19.3 2.7 18.3 2C16.1 0.2 14.4 0 11.6 0C9.9 0 8.3 0.3 6.9 0.7C6 1 5.2 1.4 4.3 2.1C4.1 2.3 3.9 2.5 3.6 2.7C2.5 3.6 1.9 4.4 1.1 5.7C0.5 6.6 0 8.4 0 9.9Z" fill="#7BACDC"/>
<path d="M20.4 12.4C20.4 16.6 16.4 20.2 12.9 21.1C10.4 21.8 8.2 21.5 6.1 20.6C5.2 20.2 4.2 19.6 3.4 19.2L2.2 18.3C2 18.2 1.9 18 1.6 17.9C1.5 17.7 1.5 17.5 1.1 17.5C2.8 20.7 4 22.6 7.9 23.6C12.2 24.6 16.2 24 19.3 21.3C19.9 20.8 20.1 20.6 20.6 20C22.3 17.9 23 16.7 23 13.5C23 10.7 21.6 8.29999 19.7 6.79999C19.3 6.49999 18.2 5.59999 17.7 5.39999C17.8 5.69999 18.4 6.59999 18.6 6.99999C18.9 7.59999 19.2 7.99999 19.4 8.59999C19.9 9.49999 20.4 10.8 20.4 12.4Z" fill="#2D327B"/>
<path d="M5.9 9.09999V9.39999H9.9C9.9 11.5 9.4 15.6 9.4 17.7C11 17.7 12.4 16.4 12.4 14.8V9.39999H14C15.4 9.39999 16.5 8.29999 16.5 6.89999H8.4C7.7 6.89999 7.1 7.19999 6.7 7.59999C6.3 7.79999 5.9 8.49999 5.9 9.09999Z" fill="#7BACDC"/>
</g>
<defs>
<clipPath id="clip0">
<rect width="24" height="24" fill="white"/>
</clipPath>
</defs>
</svg>
