<?xml version="1.0" standalone="no"?>
<!DOCTYPE svg PUBLIC "-//W3C//DTD SVG 1.0//EN" "http://www.w3.org/TR/2001/REC-SVG-20010904/DTD/svg10.dtd">
<svg xmlns="http://www.w3.org/2000/svg" xmlns:xlink="http://www.w3.org/1999/xlink" id="body_1" width="24" height="24">

<g transform="matrix(0.75 0 0 0.75 0 0)">
	<g transform="matrix(1.3333334 0 0 1.3333334 0 0)">
	</g>
    <path transform="matrix(1.3333334 0 0 1.3333334 0 0)"  d="M9.410156 5.480469C 9.113281 5.441406 9.097656 5.429688 9.242188 5.417969C 9.511719 5.382812 10.140625 5.429688 10.582031 5.515625C 11.609375 5.726562 12.535156 6.269531 13.519531 7.222656L13.519531 7.222656L13.777344 7.480469L14.144531 7.429688C 15.730469 7.207031 17.355469 7.382812 18.710938 7.925781C 19.082031 8.074219 19.664062 8.371094 19.734375 8.445312C 19.765625 8.46875 19.808594 8.628906 19.835938 8.789062C 19.9375 9.371094 19.894531 9.800781 19.679688 10.136719C 19.566406 10.320312 19.566406 10.371094 19.636719 10.53125C 19.695312 10.652344 19.863281 10.742188 20.019531 10.742188C 20.363281 10.742188 20.71875 10.269531 20.890625 9.617188L20.890625 9.617188L20.960938 9.355469L21.089844 9.480469C 21.816406 10.183594 22.386719 11.160156 22.472656 11.851562L22.472656 11.851562L22.503906 12.035156L22.375 11.875C 22.160156 11.59375 21.960938 11.40625 21.691406 11.246094C 21.203125 10.960938 20.691406 10.875 19.335938 10.816406C 18.109375 10.753906 17.410156 10.667969 16.726562 10.46875C 15.558594 10.136719 14.960938 9.703125 13.574219 8.109375C 12.960938 7.40625 12.578125 7.023438 12.191406 6.703125C 11.351562 6 10.511719 5.628906 9.410156 5.480469z" stroke="none" fill="#FF007A" fill-rule="nonzero" />
	<g transform="matrix(1.3333334 0 0 1.3333334 0 0)">
	</g>
    <path transform="matrix(1.3333334 0 0 1.3333334 0 0)"  d="M20.035156 7.046875C 20.0625 6.578125 20.136719 6.269531 20.292969 5.984375C 20.347656 5.875 20.40625 5.777344 20.421875 5.777344C 20.433594 5.777344 20.40625 5.863281 20.363281 5.960938C 20.25 6.234375 20.234375 6.617188 20.304688 7.046875C 20.40625 7.605469 20.449219 7.679688 21.132812 8.28125C 21.449219 8.566406 21.816406 8.925781 21.960938 9.074219L21.960938 9.074219L22.203125 9.34375L21.960938 9.148438C 21.660156 8.898438 20.976562 8.429688 20.820312 8.371094C 20.71875 8.320312 20.707031 8.320312 20.632812 8.382812C 20.578125 8.429688 20.5625 8.503906 20.5625 8.863281C 20.550781 9.417969 20.464844 9.765625 20.25 10.121094C 20.136719 10.308594 20.121094 10.269531 20.222656 10.0625C 20.292969 9.902344 20.304688 9.828125 20.304688 9.296875C 20.304688 8.222656 20.164062 7.960938 19.292969 7.53125C 19.082031 7.417969 18.710938 7.257812 18.496094 7.171875C 18.265625 7.085938 18.097656 7.011719 18.109375 7.011719C 18.140625 6.984375 18.980469 7.195312 19.308594 7.320312C 19.808594 7.492188 19.894531 7.503906 19.949219 7.492188C 19.992188 7.457031 20.019531 7.355469 20.035156 7.046875z" stroke="none" fill="#FF007A" fill-rule="nonzero" />
	<g transform="matrix(1.3333334 0 0 1.3333334 0 0)">
	</g>
    <path transform="matrix(1.3333334 0 0 1.3333334 0 0)"  d="M9.996094 8.886719C 9.398438 8.171875 9.011719 7.058594 9.097656 6.234375L9.097656 6.234375L9.125 5.972656L9.269531 6C 9.527344 6.035156 9.96875 6.183594 10.183594 6.292969C 10.753906 6.589844 11.007812 7 11.25 8.011719C 11.324219 8.308594 11.421875 8.652344 11.464844 8.765625C 11.535156 8.949219 11.808594 9.382812 12.035156 9.652344C 12.191406 9.851562 12.09375 9.949219 11.734375 9.925781C 11.195312 9.875 10.46875 9.445312 9.996094 8.886719z" stroke="none" fill="#FF007A" fill-rule="nonzero" />
	<g transform="matrix(1.3333334 0 0 1.3333334 0 0)">
	</g>
    <path transform="matrix(1.3333334 0 0 1.3333334 0 0)"  d="M19.308594 14.261719C 16.484375 13.273438 15.488281 12.417969 15.488281 10.976562C 15.488281 10.765625 15.5 10.59375 15.5 10.59375C 15.515625 10.59375 15.613281 10.667969 15.742188 10.753906C 16.3125 11.148438 16.957031 11.320312 18.738281 11.542969C 19.777344 11.679688 20.378906 11.777344 20.917969 11.9375C 22.644531 12.433594 23.714844 13.445312 23.972656 14.816406C 24.042969 15.210938 24 15.964844 23.886719 16.359375C 23.785156 16.667969 23.5 17.234375 23.429688 17.25C 23.414062 17.25 23.386719 17.1875 23.386719 17.085938C 23.359375 16.570312 23.058594 16.074219 22.558594 15.691406C 21.960938 15.246094 21.191406 14.914062 19.308594 14.261719z" stroke="none" fill="#FF007A" fill-rule="nonzero" />
	<g transform="matrix(1.3333334 0 0 1.3333334 0 0)">
	</g>
    <path transform="matrix(1.3333334 0 0 1.3333334 0 0)"  d="M17.3125 14.667969C 17.285156 14.480469 17.210938 14.246094 17.167969 14.148438L17.167969 14.148438L17.097656 13.964844L17.226562 14.097656C 17.410156 14.285156 17.554688 14.507812 17.683594 14.816406C 17.78125 15.050781 17.78125 15.125 17.78125 15.507812C 17.78125 15.878906 17.769531 15.964844 17.683594 16.175781C 17.539062 16.507812 17.367188 16.742188 17.082031 17C 16.570312 17.457031 15.898438 17.707031 14.945312 17.816406C 14.773438 17.828125 14.289062 17.867188 13.859375 17.890625C 12.792969 17.941406 12.078125 18.039062 11.4375 18.234375C 11.351562 18.261719 11.265625 18.285156 11.25 18.273438C 11.222656 18.25 11.664062 18.027344 12.019531 17.878906C 12.519531 17.667969 13.035156 17.558594 14.160156 17.382812C 14.714844 17.308594 15.285156 17.210938 15.429688 17.160156C 16.839844 16.777344 17.539062 15.828125 17.3125 14.667969z" stroke="none" fill="#FF007A" fill-rule="nonzero" />
	<g transform="matrix(1.3333334 0 0 1.3333334 0 0)">
	</g>
    <path transform="matrix(1.3333334 0 0 1.3333334 0 0)"  d="M18.609375 16.65625C 18.238281 15.953125 18.152344 15.285156 18.351562 14.65625C 18.382812 14.59375 18.410156 14.53125 18.4375 14.53125C 18.46875 14.53125 18.550781 14.570312 18.636719 14.617188C 18.808594 14.71875 19.164062 14.890625 20.078125 15.320312C 21.234375 15.867188 21.890625 16.285156 22.347656 16.765625C 22.746094 17.1875 22.988281 17.667969 23.101562 18.261719C 23.171875 18.59375 23.128906 19.398438 23.03125 19.730469C 22.714844 20.78125 22.003906 21.621094 20.960938 22.101562C 20.804688 22.175781 20.675781 22.226562 20.664062 22.226562C 20.648438 22.226562 20.707031 22.101562 20.792969 21.953125C 21.132812 21.324219 21.175781 20.71875 20.917969 20.039062C 20.761719 19.621094 20.433594 19.113281 19.777344 18.261719C 18.996094 17.273438 18.808594 17.015625 18.609375 16.65625z" stroke="none" fill="#FF007A" fill-rule="nonzero" />
	<g transform="matrix(1.3333334 0 0 1.3333334 0 0)">
	</g>
    <path transform="matrix(1.3333334 0 0 1.3333334 0 0)"  d="M7.984375 20.433594C 9.039062 19.667969 10.339844 19.125 11.535156 18.953125C 12.050781 18.878906 12.90625 18.902344 13.375 19.015625C 14.132812 19.1875 14.816406 19.558594 15.171875 20.015625C 15.515625 20.460938 15.671875 20.84375 15.828125 21.695312C 15.886719 22.027344 15.957031 22.375 15.972656 22.449219C 16.085938 22.890625 16.3125 23.238281 16.597656 23.421875C 17.039062 23.707031 17.8125 23.71875 18.566406 23.472656C 18.695312 23.433594 18.808594 23.398438 18.808594 23.410156C 18.835938 23.433594 18.453125 23.65625 18.195312 23.769531C 17.839844 23.929688 17.554688 23.980469 17.167969 23.980469C 16.484375 23.980469 15.898438 23.667969 15.429688 23.050781C 15.328125 22.929688 15.128906 22.570312 14.960938 22.238281C 14.460938 21.238281 14.203125 20.941406 13.617188 20.605469C 13.105469 20.324219 12.449219 20.261719 11.949219 20.472656C 11.292969 20.742188 11.121094 21.472656 11.578125 21.917969C 11.765625 22.101562 12.105469 22.25 12.390625 22.285156C 12.917969 22.347656 13.375 21.992188 13.375 21.535156C 13.375 21.238281 13.246094 21.0625 12.90625 20.929688C 12.449219 20.753906 11.949219 20.953125 11.964844 21.335938C 11.964844 21.496094 12.050781 21.59375 12.234375 21.667969C 12.347656 21.71875 12.347656 21.71875 12.265625 21.707031C 11.851562 21.632812 11.75 21.1875 12.078125 20.902344C 12.476562 20.558594 13.320312 20.707031 13.605469 21.1875C 13.71875 21.386719 13.734375 21.78125 13.632812 22.027344C 13.390625 22.570312 12.707031 22.855469 12.007812 22.695312C 11.535156 22.582031 11.335938 22.472656 10.765625 21.964844C 9.769531 21.078125 9.382812 20.902344 7.957031 20.71875L7.957031 20.71875L7.6875 20.679688L7.984375 20.433594z" stroke="none" fill="#FF007A" fill-rule="nonzero" />
	<g transform="matrix(1.3333334 0 0 1.3333334 0 0)">
	</g>
    <path transform="matrix(1.3333334 0 0 1.3333334 0 0)"  d="M0.484375 0.566406C 3.808594 4.058594 8.925781 9.492188 9.183594 9.789062C 9.398438 10.035156 9.3125 10.269531 8.957031 10.445312C 8.753906 10.542969 8.34375 10.640625 8.144531 10.640625C 7.914062 10.640625 7.644531 10.542969 7.457031 10.382812C 7.328125 10.269531 6.773438 9.566406 5.519531 7.875C 4.5625 6.578125 3.75 5.503906 3.734375 5.492188C 3.679688 5.46875 3.679688 5.46875 5.417969 8.160156C 6.515625 9.851562 6.875 10.457031 6.875 10.53125C 6.875 10.691406 6.816406 10.777344 6.589844 11C 6.203125 11.371094 6.03125 11.789062 5.902344 12.667969C 5.761719 13.640625 5.375 14.332031 4.277344 15.507812C 3.636719 16.199219 3.535156 16.320312 3.378906 16.605469C 3.179688 16.953125 3.121094 17.148438 3.09375 17.59375C 3.066406 18.0625 3.121094 18.359375 3.28125 18.804688C 3.421875 19.199219 3.578125 19.457031 3.964844 19.964844C 4.292969 20.410156 4.492188 20.742188 4.492188 20.867188C 4.492188 20.964844 4.519531 20.964844 5.035156 20.867188C 6.261719 20.621094 7.273438 20.199219 7.828125 19.679688C 8.171875 19.359375 8.257812 19.1875 8.257812 18.742188C 8.257812 18.457031 8.242188 18.398438 8.15625 18.222656C 8.015625 17.953125 7.742188 17.730469 7.160156 17.382812C 6.386719 16.925781 6.0625 16.558594 5.976562 16.0625C 5.902344 15.644531 5.988281 15.359375 6.417969 14.582031C 6.859375 13.777344 6.972656 13.445312 7.042969 12.628906C 7.085938 12.109375 7.160156 11.902344 7.328125 11.742188C 7.515625 11.566406 7.671875 11.507812 8.113281 11.457031C 8.839844 11.371094 9.3125 11.210938 9.683594 10.902344C 10.011719 10.640625 10.152344 10.382812 10.167969 10L10.167969 10L10.183594 9.714844L9.996094 9.542969C 9.328125 8.875 0.0429688 0.0351562 0 0.0351562C -0.015625 0.0351562 0.214844 0.269531 0.484375 0.566406zM4.863281 18.125C 5.019531 17.890625 4.933594 17.59375 4.675781 17.445312C 4.433594 17.308594 4.0625 17.371094 4.0625 17.558594C 4.0625 17.605469 4.09375 17.65625 4.179688 17.679688C 4.304688 17.742188 4.320312 17.804688 4.222656 17.941406C 4.121094 18.074219 4.121094 18.199219 4.25 18.285156C 4.449219 18.421875 4.71875 18.347656 4.863281 18.125z" stroke="none" fill="#FF007A" fill-rule="nonzero" />
	<g transform="matrix(1.3333334 0 0 1.3333334 0 0)">
	</g>
    <path transform="matrix(1.3333334 0 0 1.3333334 0 0)"  d="M10.636719 11.628906C 10.296875 11.714844 9.96875 12.035156 9.867188 12.359375C 9.8125 12.554688 9.839844 12.914062 9.9375 13.023438C 10.097656 13.199219 10.238281 13.246094 10.636719 13.246094C 11.421875 13.246094 12.09375 12.949219 12.164062 12.59375C 12.234375 12.296875 11.9375 11.890625 11.523438 11.703125C 11.308594 11.605469 10.867188 11.566406 10.636719 11.628906zM11.550781 12.246094C 11.664062 12.097656 11.621094 11.9375 11.40625 11.828125C 11.023438 11.617188 10.4375 11.789062 10.4375 12.109375C 10.4375 12.273438 10.738281 12.445312 11.023438 12.445312C 11.207031 12.445312 11.464844 12.347656 11.550781 12.246094z" stroke="none" fill="#FF007A" fill-rule="nonzero" />
</g>
</svg>