<svg width="24" height="24" viewBox="0 0 24 24" fill="none" xmlns="http://www.w3.org/2000/svg">
<path d="M0 11.3V11.4C0 13.7 0.1 15.1 1.2 17.2C3 21 7.1 24 11.3 24H11.4C13.7 24 15 23.9 17.2 22.8C21 21 24 17 24 12.7V12.6C24 10.3 23.9 9 22.8 6.8C21 3 16.9 0 12.7 0H12.6C10.3 0 9 0.1 6.8 1.2C5.3 1.9 4.6 2.5 3.5 3.5C2.5 4.6 1.9 5.4 1.2 6.8C0.6 7.9 0 9.7 0 11.3Z" fill="#3575BB"/>
<path d="M11.2 7.7C9.80001 8.1 8.60001 8.7 8.80001 10.4C9.00001 13.3 12.8 12.2 13.5 13.4C14.3 14.9 12.1 16 10.7 15.1C9.90001 14.6 10.5 13.8 9.10001 13.8C7.70001 13.8 8.90001 15.4 9.10001 15.7C9.60001 16.2 10.2 16.5 11.1 16.7C11.2 17.6 10.8 18.2 11.9 18.2C13 18.2 12.7 17.7 12.7 16.7C14 16.2 15.2 15.8 15.2 14.1C15.3 12.3 14.3 11.8 12.7 11.5C12.1 11.4 11.2 11.3 10.7 11C10.2 10.7 10 9.9 10.5 9.4C11 8.9 12 8.9 12.6 9.2C13.9 9.7 12.5 10.4 14.8 10.3C15.1 8.9 13.7 8.2 12.6 7.8C12.6 6.8 12.9 6.3 11.8 6.3C10.7 6.3 11.3 6.7 11.2 7.7Z" fill="white"/>
<path d="M14.3 19.4C13.7 21.6 15.6 20.5 16.9 19.7C21.2 16.8 22.4 11.1 19 6.5L18.4 5.7C18.3 5.6 18.2 5.6 18.2 5.5C17.6 5 15.3 3.3 14.4 3.6C13.9 5.2 14.8 4.8 16.6 6.1C20.3 8.7 20.8 14.9 16.6 18.1C15.8 18.7 14.9 18.9 14.3 19.4Z" fill="white"/>
<path d="M9.7 19.4C8.9 18.8 7.5 18.6 6 16.6C3.3 12.9 4.4 8 8.4 5.6C9.3 5 10.1 5.3 9.7 3.6C9 3.4 7.4 4.4 6.9 4.7C5.8 5.5 5.6 5.7 4.9 6.6C2.2 10.1 2.6 15.4 5.6 18.2C6.4 19 6.5 19.3 7.8 20C8.7 20.5 10.2 21.5 9.7 19.4Z" fill="white"/>
</svg>
