<?xml version="1.0" encoding="utf-8"?>
<!-- Generator: Adobe Illustrator 19.0.0, SVG Export Plug-In . SVG Version: 6.00 Build 0)  -->
<svg version="1.1" id="Layer_1" xmlns="http://www.w3.org/2000/svg" xmlns:xlink="http://www.w3.org/1999/xlink" x="0px" y="0px"
	 width="24px" height="24px" viewBox="0 0 24 24" style="enable-background:new 0 0 24 24;" xml:space="preserve">
<style type="text/css">
	.st0{fill:#53AE94;}
	.st1{fill:#FFFFFF;}
</style>
<circle id="XMLID_1_" class="st0" cx="12" cy="12" r="12"/>
<g id="XMLID_390_">
	<path id="XMLID_20_" class="st1" d="M13.3,10.7V9.1h3.7V6.7H7v2.5h3.7v1.6c-3,0.1-5.3,0.7-5.3,1.5c0,0.7,2.3,1.3,5.3,1.5v5.2h2.7
		v-5.2c3-0.1,5.3-0.7,5.3-1.5C18.6,11.5,16.4,10.9,13.3,10.7 M13.3,13.2L13.3,13.2c-0.1,0-0.5,0-1.3,0c-0.7,0-1.2,0-1.4,0v0
		C8,13.1,6,12.6,6,12.1c0-0.6,2-1,4.7-1.1v1.8c0.2,0,0.7,0,1.4,0c0.8,0,1.2,0,1.3,0v-1.8c2.7,0.1,4.6,0.6,4.6,1.1
		C18,12.6,16,13.1,13.3,13.2"/>
</g>
</svg>
