<?xml version="1.0" standalone="no"?>
<!DOCTYPE svg PUBLIC "-//W3C//DTD SVG 1.0//EN" "http://www.w3.org/TR/2001/REC-SVG-20010904/DTD/svg10.dtd">
<svg xmlns="http://www.w3.org/2000/svg" xmlns:xlink="http://www.w3.org/1999/xlink" id="body_1" width="24" height="24">

<defs>
    <linearGradient transform="matrix(1 0 0 1 0 0)"  id="1" x1="0" y1="-330.01" x2="2000.04" y2="-330.01">
        <stop stop-color="#9D4ABE" offset="0%"/>
        <stop stop-color="#28BAD5" offset="100%"/>
    </linearGradient>
        <clipPath  id="1">

            <path clip-rule="evenodd" transform="matrix(1.3333334 0 0 1.3333334 0 0)"  d="M0 0L32 0L32 32L0 32L0 0z" />        </clipPath>
        <clipPath  id="2">

            <path clip-rule="evenodd" transform="matrix(1.3333334 0 0 1.3333334 0 0)"  d="M0 0L32 0L32 32L0 32L0 0z" />        </clipPath>
</defs>

<g transform="matrix(0.75 0 0 0.75 0 0)">
	<g transform="matrix(1.3333334 0 0 1.3333334 0 0)">
	</g>
    <path transform="matrix(1.3333334 0 0 1.3333334 0 0)"  d="M10.316406 22.917969L0.0507812 0.773438C -0.113281 0.417969 0.136719 0 0.507812 0L0.507812 0L4.0625 0C 4.253906 0 4.433594 0.113281 4.515625 0.292969L4.515625 0.292969L12.011719 16.359375C 12.679688 17.800781 14.613281 17.800781 15.28125 16.359375L15.28125 16.359375L22.753906 0.304688C 22.839844 0.128906 23.019531 0.0117188 23.207031 0.0117188L23.207031 0.0117188L23.648438 0.0117188C 23.914062 0.0117188 24.078125 0.304688 23.960938 0.542969L23.960938 0.542969L13.589844 22.917969C 12.921875 24.359375 10.984375 24.359375 10.316406 22.917969z" stroke="none" fill="url(#1)" />
	<g clip-path="url(#1)" >
		<g transform="matrix(1.3333334 0 0 1.3333334 0 0)">
		</g>
        <path transform="matrix(1.3333334 0 0 1.3333334 0 0)"  d="M10.316406 22.917969L4.515625 0.304688C 4.433594 0.113281 4.242188 0.0117188 4.085938 0.0117188L4.085938 0.0117188L0.519531 0.0117188C 0.125 0.0117188 -0.101562 0.429688 0.0507812 0.785156L0.0507812 0.785156L10.316406 22.917969z" stroke="none" fill="#FFFFFF" fill-rule="nonzero" />
	</g>
	<g clip-path="url(#2)" >
		<g transform="matrix(1.3333334 0 0 1.3333334 0 0)">
		</g>
        <path transform="matrix(1.3333334 0 0 1.3333334 0 0)"  d="M12.011719 16.371094L0.0507812 0.773438C -0.0898438 0.40625 0.125 0.0390625 0.457031 0L0.457031 0L4.074219 0C 4.277344 0.0117188 4.433594 0.152344 4.503906 0.292969L4.503906 0.292969L12.011719 16.371094z" stroke="none" fill="#FFFFFF" fill-rule="nonzero" />
	</g>
</g>
</svg>