<?xml version="1.0" encoding="utf-8"?>
<svg version="1.1" id="Layer_1" xmlns="http://www.w3.org/2000/svg" xmlns:xlink="http://www.w3.org/1999/xlink" x="0px" y="0px"
	 width="26px" height="26px" viewBox="0 0 26 26" style="enable-background:new 0 0 26 26;" xml:space="preserve">
<style type="text/css">
	.st0{fill:#FEDE39;}
</style>
<path id="XMLID_1_" class="st0" d="M13,26c7.1,0,13-5.9,13-13S20.1,0,13,0V26z"/>
<path id="XMLID_2_" d="M13,26C5.8,26,0,20.1,0,13S5.8,0,13,0V26z"/>
<path id="XMLID_5_" class="st0" d="M4.7,18.6h2.2l1.8-5.1l1.8,5.1h2.2l3-9H13l-1.5,5.2L9.8,9.7H7.6l-1.7,5.2L4.3,9.7H1.7L4.7,18.6z"
	/>
<path id="XMLID_7_" d="M17.1,18.6c2.5,0,4.1-1.2,4.1-4.1V9.7h-2.5v5c0,1.2-0.6,1.8-1.6,1.8s-1.6-0.6-1.6-1.9V9.7H13v5
	C13,17.4,14.5,18.6,17.1,18.6z"/>
</svg>
