<?xml version="1.0" encoding="utf-8"?>
<!-- Generator: Adobe Illustrator 19.0.0, SVG Export Plug-In . SVG Version: 6.00 Build 0)  -->
<svg version="1.1" id="Layer_1" xmlns="http://www.w3.org/2000/svg" xmlns:xlink="http://www.w3.org/1999/xlink" x="0px" y="0px"
	 width="24px" height="24px" viewBox="0 0 24 24" style="enable-background:new 0 0 24 24;" xml:space="preserve">
<style type="text/css">
	.st0{fill:url(#SVGID_1_);}
	.st1{fill:#FFFFFF;}
</style>
<linearGradient id="SVGID_1_" gradientUnits="userSpaceOnUse" x1="0" y1="13" x2="24" y2="13" gradientTransform="matrix(1 0 0 -1 0 25)">
	<stop  offset="0" style="stop-color:#686F91"/>
	<stop  offset="1" style="stop-color:#7C86C2"/>
</linearGradient>
<circle class="st0" cx="12" cy="12" r="12"/>
<path class="st1" d="M8,12.9l0.7-3.3h1.5l-1.3,5.2H7.3l-0.8-3l-0.8,3H4.1L2.8,9.6h1.5L5,12.9l0.9-3.3h1.3L8,12.9z"/>
<path class="st1" d="M14.7,12.6h-2.4v1.2h2.8v1h-4.3V9.6h4.3v1h-2.8v1.1h2.4V12.6z"/>
<path id="XMLID_2_" class="st1" d="M18.3,11.3l1-1.7H21l-1.8,2.6l1.8,2.6h-1.7L18.2,13l-1.1,1.8h-1.7l1.8-2.6l-1.7-2.6h1.7
	L18.3,11.3z"/>
</svg>
