<svg width="24" height="24" viewBox="0 0 24 24" fill="none" xmlns="http://www.w3.org/2000/svg">
<path d="M11.9 0.199997C13.8 0.199997 15.6 0.599997 17.2 1.4C17.5 1.5 17.7 1.6 18 1.8L16.9 2.8L15.2 0.999997L12.4 3.5L10.7 1.7L5.5 6.4L8.8 10L7.5 11.1L10.8 14.7L9.5 15.8L14.2 21L17 18.5L19.4 21.2C18.9 21.6 18.4 21.9 17.8 22.2C16.1 23.2 14.1 23.7 11.9 23.7C5.4 23.8 0 18.5 0 12C0 5.5 5.3 0.199997 11.9 0.199997ZM9.8 11.3L12.7 8.8L15.3 11.6L12.4 14.1L9.8 11.3ZM11.8 16.1L14.6 13.5L17.2 16.3L14.3 18.8L11.8 16.1ZM7.7 6.5L10.6 4L13.2 6.8L10.3 9.3L7.7 6.5ZM12.9 5.1L15 3.2L17 5.3L14.9 7.2L12.9 5.1ZM16.7 13.8L18.8 11.9L20.7 14L18.6 15.9L16.7 13.8ZM18.6 18.1L20.7 16.2L22.6 18.3L20.5 20.2L18.6 18.1ZM19.5 8.3L20.9 7L22.2 8.4L20.8 9.7L19.5 8.3ZM17.7 4.1L19.1 2.8L20.4 4.2L19 5.5L17.7 4.1ZM21.3 12.5L22.7 11.2L24 12.6L22.6 13.9L21.3 12.5ZM14.9 9.3L17 7.5L19 9.6L16.9 11.5L14.9 9.3Z" fill="#0D6DB5"/>
</svg>
