<?xml version="1.0" encoding="utf-8"?>
<!-- Generator: Adobe Illustrator 19.0.0, SVG Export Plug-In . SVG Version: 6.00 Build 0)  -->
<svg version="1.1" id="Layer_1" xmlns="http://www.w3.org/2000/svg" xmlns:xlink="http://www.w3.org/1999/xlink" x="0px" y="0px"
	 width="24px" height="24px" viewBox="0 0 24 24" style="enable-background:new 0 0 24 24;" xml:space="preserve">
<style type="text/css">
	.st0{fill:#010101;}
	.st1{fill:#F6A81C;}
	.st2{fill:#6CB2E2;}
	.st3{fill:#2FBCAF;}
</style>
<path id="XMLID_18_" class="st0" d="M12,24l-0.1-0.1C6.5,20.8,2.5,15.6,0.8,9.4c-0.3-1-0.5-2-0.6-3c-0.1-1-0.2-2-0.2-3
	c0-0.2,0-0.1,0.1-0.2c2-1.1,4.1-2,6.4-2.5c0.8-0.2,1.7-0.3,2.5-0.4C10.2,0.1,11.4,0,12.6,0c0.7,0,1.3,0.1,2,0.1
	c3.3,0.4,6.4,1.3,9.3,3c0,0,0.1,0,0.1,0.1c0,0,0.1,0.1,0.1,0.1v0.2c0,0.6,0,1.2-0.1,1.8c-0.1,0.8-0.2,1.7-0.3,2.5
	c-0.3,1.8-0.9,3.5-1.6,5.2c-1.2,2.6-2.8,5-4.8,7.1c-1.5,1.5-3.1,2.8-4.9,3.8C12.1,23.9,12.1,24,12,24L12,24z M1.1,4v0.1
	c0,0.8,0.1,1.7,0.2,2.5c0.1,0.8,0.2,1.5,0.4,2.2c0,0.1,0.1,0.3,0.1,0.4c1,2.2,3.4,3.4,5.8,2.8c1.8-0.4,3.3-1.8,3.8-3.6
	c0.1-0.5,0.2-1,0.2-1.5c0-0.3,0-0.7,0.1-1c0.4-2,1.7-3.7,3.6-4.5c0.1,0,0.2-0.1,0.3-0.1c0,0,0,0,0,0c-0.3-0.1-2.1-0.3-3.1-0.3
	C10.2,1,7.9,1.3,5.7,2C4.1,2.5,2.6,3.1,1.1,4L1.1,4z M18,17.7c0.1,0,0.1-0.1,0.1-0.1c0.5-0.6,0.9-1.2,1.3-1.8c1.4-2.2,2.4-4.6,3-7.2
	c0.2-0.9,0.3-1.8,0.4-2.7c0.1-0.6,0.1-1.2,0.1-1.8c0,0,0-0.1,0-0.1l-0.2-0.1c-0.5-0.3-1-0.5-1.4-0.7c-0.7-0.3-1.4-0.6-2.2-0.9
	c-0.9-0.3-1.8-0.3-2.7-0.1c-2.6,0.6-4.3,3.2-3.8,5.9c0.3,1.5,1.1,2.6,2.3,3.4c0.1,0.1,0.2,0.1,0.3,0.2c0.9,0.6,1.6,1.3,2.2,2.3
	c0.5,1,0.8,2.1,0.7,3.2C18,17.3,18,17.5,18,17.7L18,17.7z M12,22.8c0,0,0.1-0.1,0.1-0.1c1.4-0.8,2.8-1.9,4-3
	c0.1-0.1,0.1-0.2,0.2-0.3c0.1-0.1,0.2-0.3,0.2-0.5c0.6-1.2,0.7-2.4,0.3-3.7c-0.7-2.5-3.1-3.9-5.5-3.6c-0.7,0.1-1.3,0.3-1.9,0.6
	c-1.1,0.6-2.3,0.9-3.7,0.8c-0.6-0.1-1.2-0.2-1.8-0.5c-0.5-0.2-0.9-0.5-1.3-0.8c0,0-0.1,0-0.1-0.1c0,0.1,0,0.1,0,0.1
	c0.5,1.3,1.1,2.5,1.9,3.7c0.8,1.3,1.7,2.5,2.8,3.5s2.2,2,3.5,2.9C11.3,22.4,11.8,22.8,12,22.8L12,22.8z"/>
<path id="XMLID_9_" class="st1" d="M1.1,4c1.5-0.8,3-1.5,4.6-2c2.2-0.7,4.4-1,6.7-0.9c1.1,0,2.8,0.2,3.1,0.3c0,0,0,0,0,0
	c-0.1,0-0.2,0.1-0.3,0.1C13.3,2.3,12,4,11.6,6c-0.1,0.3-0.1,0.7-0.1,1c0,0.5-0.1,1-0.2,1.5c-0.5,1.8-2,3.2-3.8,3.6
	c-2.4,0.5-4.7-0.6-5.8-2.8C1.7,9.1,1.7,9,1.6,8.9C1.5,8.1,1.3,7.4,1.2,6.6C1.1,5.8,1.1,5,1.1,4.1C1.1,4.1,1.1,4,1.1,4L1.1,4z"/>
<path id="XMLID_8_" class="st2" d="M18,17.7c0-0.2,0-0.4,0.1-0.6c0.1-1.1-0.2-2.2-0.7-3.2c-0.5-1-1.2-1.7-2.2-2.3
	c-0.1-0.1-0.2-0.1-0.3-0.2c-1.3-0.8-2.1-1.9-2.3-3.4c-0.5-2.7,1.2-5.2,3.8-5.9C17.3,2,18.2,2,19.1,2.3c0.7,0.2,1.5,0.5,2.2,0.9
	c0.5,0.2,1,0.5,1.4,0.7c0.1,0,0.1,0.1,0.2,0.1c0,0,0,0.1,0,0.1c0,0.6,0,1.2-0.1,1.8c-0.1,0.9-0.2,1.8-0.4,2.7c-0.6,2.6-1.6,5-3,7.2
	c-0.4,0.6-0.8,1.2-1.3,1.8C18.1,17.6,18.1,17.7,18,17.7z"/>
<path id="XMLID_6_" class="st3" d="M12,22.8c-0.2-0.1-0.7-0.4-1.3-0.8c-1.2-0.8-2.4-1.8-3.5-2.9c-1.1-1.1-2-2.3-2.8-3.5
	c-0.8-1.2-1.4-2.4-1.9-3.7c0,0,0-0.1,0-0.1c0.1,0,0.1,0,0.1,0.1c0.4,0.3,0.8,0.6,1.3,0.8c0.6,0.3,1.2,0.4,1.8,0.5
	c1.3,0.1,2.5-0.1,3.7-0.8c0.6-0.3,1.2-0.5,1.9-0.6c2.4-0.3,4.8,1.1,5.5,3.6c0.4,1.3,0.3,2.5-0.3,3.7c-0.1,0.2-0.1,0.3-0.2,0.5
	c0,0.1-0.1,0.2-0.2,0.3c-1.2,1.1-2.5,2.2-4,3C12.1,22.8,12.1,22.8,12,22.8L12,22.8z"/>
</svg>
