<?xml version="1.0" encoding="utf-8"?>
<!-- Generator: Adobe Illustrator 19.0.0, SVG Export Plug-In . SVG Version: 6.00 Build 0)  -->
<svg version="1.1" id="Layer_1" xmlns="http://www.w3.org/2000/svg" xmlns:xlink="http://www.w3.org/1999/xlink" x="0px" y="0px"
	 width="24px" height="24px" viewBox="0 0 24 24" style="enable-background:new 0 0 24 24;" xml:space="preserve">
<style type="text/css">
	.st0{fill:#FFFFFF;}
	.st1{fill:#F16924;}
	.st2{fill:#4E4E4E;}
</style>
<g id="XMLID_105_">
	<circle id="XMLID_103_" class="st0" cx="12" cy="12" r="12"/>
	<path id="_149931032_2_" class="st1" d="M12,0C5.4,0,0,5.4,0,12c0,1.3,0.2,2.6,0.6,3.8h3.6V5.7l7.8,7.8l7.8-7.8v10.1h3.6
		c0.4-1.2,0.6-2.5,0.6-3.8C24,5.4,18.6,0,12,0L12,0z"/>
	<path id="_149931160_2_" class="st2" d="M10.2,15.3l-3.4-3.4v6.4H5.5H4.2l-2.5,0C3.9,21.7,7.7,24,12,24c4.3,0,8.1-2.3,10.3-5.8
		l-2.5,0h-2.3h-0.3v-6.4l-3.4,3.4L12,17.1L10.2,15.3L10.2,15.3z"/>
</g>
</svg>
