<?xml version="1.0" encoding="utf-8"?>
<!-- Generator: Adobe Illustrator 19.0.0, SVG Export Plug-In . SVG Version: 6.00 Build 0)  -->
<svg version="1.1" id="Layer_1" xmlns="http://www.w3.org/2000/svg" xmlns:xlink="http://www.w3.org/1999/xlink" x="0px" y="0px"
	 width="24px" height="24px" viewBox="0 0 24 24" style="enable-background:new 0 0 24 24;" xml:space="preserve">
<style type="text/css">
	.st0{fill:url(#XMLID_2_);}
</style>
<g id="XMLID_5_">
	<g id="XMLID_6_">
		<linearGradient id="XMLID_2_" gradientUnits="userSpaceOnUse" x1="7.1767" y1="3.683" x2="23.8107" y2="20.317">
			<stop  offset="0" style="stop-color:#14A7E0"/>
			<stop  offset="1" style="stop-color:#056197"/>
		</linearGradient>
		<path id="XMLID_22_" class="st0" d="M20.6,14.6c-0.8-0.5-1.8-0.6-2.8-0.7c-0.8,0-2-0.5-2-2c0-1.1,0.9-1.9,2-2
			c0.9,0,1.9-0.2,2.8-0.7c1.6-0.9,2.5-2.6,2.5-4.3c0-1.8-1-3.4-2.5-4.3c-1.6-0.9-3.5-0.9-5,0C14,1.6,13,3.2,13,5
			c0,1,0.3,1.9,0.8,2.7c0.4,0.7,0.6,2-0.7,2.7c-0.9,0.5-2.1,0.2-2.7-0.7c-0.5-0.8-1.1-1.5-1.9-2c-1.6-0.9-3.5-0.9-5,0
			C1.9,8.6,0.9,10.2,0.9,12c0,1.8,1,3.4,2.5,4.3c1.6,0.9,3.5,0.9,5,0c0.8-0.5,1.4-1.2,1.9-2c0.4-0.7,1.4-1.5,2.7-0.7
			c0.9,0.5,1.2,1.7,0.7,2.7C13.4,17.1,13,18,13,19c0,1.8,1,3.4,2.5,4.3c1.6,0.9,3.5,0.9,5,0c1.6-0.9,2.5-2.6,2.5-4.3
			C23.1,17.2,22.1,15.5,20.6,14.6z"/>
	</g>
</g>
</svg>
