<?xml version="1.0" encoding="utf-8"?>
<!-- Generator: Adobe Illustrator 19.0.0, SVG Export Plug-In . SVG Version: 6.00 Build 0)  -->
<svg version="1.1" id="Layer_1" xmlns="http://www.w3.org/2000/svg" xmlns:xlink="http://www.w3.org/1999/xlink" x="0px" y="0px"
	 width="24px" height="24px" viewBox="0 0 24 24" style="enable-background:new 0 0 24 24;" xml:space="preserve">
<style type="text/css">
	.st0{fill:#FFCF01;}
	.st1{fill:#D3AB07;}
</style>
<g id="XMLID_2_">
	<path id="XMLID_4_" class="st0" d="M2.9,11.9c0-1.3,0.1-2.2,2.9-4.3C8.1,5.9,15.5,0,15.5,0v9.8h5.6V24H4.6c-1,0-1.8-0.8-1.8-1.8
		L2.9,11.9z"/>
	<g id="XMLID_3_">
		<g id="XMLID_8_">
			<polygon id="XMLID_6_" class="st1" points="15.5,9.8 15.5,15.5 5.1,22.6 18.2,18.3 18.2,9.8 			"/>
			<path id="XMLID_7_" d="M10.8,9.5c0.6-0.7,1.5-1,2-0.6c0.5,0.4,0.4,1.3-0.2,2c-0.6,0.7-1.5,1-2,0.6C10.1,11.2,10.2,10.3,10.8,9.5"
				/>
		</g>
	</g>
</g>
</svg>
