<svg width="24" height="24" viewBox="0 0 24 24" fill="none" xmlns="http://www.w3.org/2000/svg">
<path d="M12 24C5.37109 24 0 18.6289 0 12C0 5.37109 5.37109 0 12 0C18.6289 0 24 5.37109 24 12C24 18.6289 18.6289 24 12 24ZM11.6211 20.25H12.3906C12.4219 20.2422 12.457 20.2344 12.4922 20.2305C12.7461 20.2031 13 20.1875 13.2539 20.1484C15.2578 19.8281 16.918 18.8906 18.2578 17.3711C18.3086 17.3125 18.3164 17.2734 18.2656 17.207C17.6875 16.4414 17.1133 15.6758 16.5391 14.9102C16.5195 14.8867 16.4961 14.8633 16.4727 14.8359L16.3945 14.9531C15.8789 15.7188 15.1719 16.3359 14.3477 16.7461C14.2695 16.7891 14.2227 16.7891 14.1523 16.7227C13.8828 16.4453 13.6016 16.1758 13.3242 15.9062L12.8242 15.4219C11.168 16.6602 9.52344 17.8867 7.86719 19.125C7.89453 19.1445 7.91016 19.1562 7.92188 19.1641C8.875 19.707 9.92578 20.0547 11.0156 20.1875C11.2188 20.2109 11.418 20.2305 11.6211 20.25ZM12.3477 3.75H11.6406C11.6055 3.75781 11.5703 3.76562 11.5312 3.76953C11.207 3.80859 10.875 3.82812 10.5547 3.88672C8.87891 4.19141 7.43359 4.94531 6.21875 6.13281C6.03125 6.3125 5.85938 6.51172 5.67188 6.71094L7.52344 9.17578L7.59766 9.0625C8.12109 8.28516 8.83594 7.66016 9.67578 7.24609C9.74609 7.21094 9.78906 7.21484 9.84375 7.26953C10.1953 7.62109 10.5508 7.96484 10.9062 8.30859C10.9688 8.37109 11.0352 8.42969 11.1016 8.49219C12.7812 7.28516 14.457 6.08594 16.1367 4.87891C16.1133 4.86328 16.1016 4.85156 16.0859 4.84375C15.0703 4.25781 13.9375 3.90234 12.7695 3.79297C12.6289 3.77734 12.4883 3.76562 12.3477 3.75ZM4.84375 7.90234C3.84375 9.71484 3.51172 11.6172 3.91797 13.6328C4.30078 15.5156 5.25 17.0664 6.71094 18.3281L9.15625 16.4922C9.14453 16.4648 9.14062 16.457 9.13672 16.4531L9.0625 16.4023C8.28516 15.8789 7.66016 15.1641 7.24609 14.3242C7.21094 14.2578 7.21484 14.2188 7.26953 14.1641C7.46094 13.9766 7.64844 13.7812 7.83594 13.5859L8.58984 12.8125L4.84375 7.90234ZM15.4766 11.1797L19.168 16.0547C20.0859 14.5117 20.5586 12.3242 20.0273 10.1094C19.6016 8.33594 18.6797 6.86719 17.2852 5.67188L14.8242 7.51953C14.875 7.55078 14.8984 7.57031 14.9297 7.58984C15.7148 8.11719 16.3477 8.83984 16.7656 9.6875C16.8008 9.76172 16.8047 9.80859 16.7422 9.86719C16.543 10.0625 16.3555 10.2656 16.1641 10.4648L15.4766 11.1797Z" fill="black"/>
</svg>
